<?xml version="1.0" encoding="UTF-8" standalone="no"?>
<!DOCTYPE svg PUBLIC "-//W3C//DTD SVG 1.1//EN" "http://www.w3.org/Graphics/SVG/1.1/DTD/svg11.dtd">
<svg width="100%" height="100%" viewBox="0 0 713 126" version="1.1" xmlns="http://www.w3.org/2000/svg" xmlns:xlink="http://www.w3.org/1999/xlink" xml:space="preserve" xmlns:serif="http://www.serif.com/" style="fill-rule:evenodd;clip-rule:evenodd;stroke-linejoin:round;stroke-miterlimit:2;">
    <g transform="matrix(1,0,0,1,-63.285801,-236.188168)">
        <g id="Fondo" transform="matrix(1,0,0,1,61,234)">
            <path d="M78.8,62.056C110.677,65.599 110.199,108.986 86.302,121.116C75.524,126.587 75.035,125.853 6.5,125.854C0.713,125.854 2.569,123.204 2.57,117.5C2.571,111.811 1.726,105.25 4.457,105.16C13.736,104.855 15.085,106.194 15.302,103.475C15.334,103.073 15.349,32.663 15.289,31.534C15.093,27.821 2.599,32.727 2.57,27.499C2.479,10.988 1.876,9.153 5.495,9.146C74.501,9.012 81.23,8.031 92.152,18.85C100.713,27.33 106.468,54.104 79.536,60.544C78.969,60.68 78.868,60.752 78.819,60.788C77.795,61.531 78.801,61.984 78.8,62.056ZM41.54,105.13C40.907,104.881 39.929,105.651 39.87,103.46C39.837,102.222 39.856,77.736 39.87,77.54C40.091,74.521 41.46,75.859 44.5,75.854C55.591,75.833 76.242,73.145 77.056,88.548C78.084,108.009 57.913,105.153 41.54,105.13ZM49.5,29.966C54.202,29.971 73.471,27.307 73.022,43.484C72.675,55.966 60.061,56.463 58.501,56.525C40.813,57.221 40.336,56.817 39.936,55.384C39.782,54.833 39.87,31.625 39.878,31.55C40.123,29.393 48.436,30.002 49.5,29.966Z" style="fill:white;"/>
            <path d="M674.939,78.444C681.006,138.454 605.273,139.944 591.729,104.407C581.649,77.96 594.194,38.454 639.504,43.458C647.509,44.343 656.319,47.966 662.486,53.516C673.985,63.865 674.836,77.899 674.939,78.444ZM631.5,108.033C630.817,107.929 630.117,107.97 629.434,107.866C605.927,104.288 608.112,56.444 637.44,63.737C654.634,68.012 657.293,105.955 631.5,108.033Z" style="fill:white;"/>
            <path d="M162.479,113.842C162.263,113.946 161.932,113.398 160.97,114.861C143.323,141.706 100.889,123.27 112.904,94.687C120.405,76.845 153.779,79.704 157.522,80.025C164.432,80.617 162.931,77.584 162.641,74.486C162.249,70.303 162.904,58.993 148.498,59.461C134.033,59.931 135.528,74.752 133.422,75.283C132.719,75.461 116.573,75.673 115.796,75.125C114.749,74.387 114.741,45.619 115.796,44.875C116.107,44.656 133.34,43.706 134.3,45.575C134.705,46.365 132.563,53.725 137.278,49.215C148.135,38.83 185.838,39.053 186.424,69.501C187.147,107.075 183.997,109.978 190.448,111.713C192.54,112.276 195.41,110.533 195.441,113.504C195.522,121.438 197.936,123.913 190.415,126.257C168.778,133.001 164.108,116.782 163.457,114.522C163.131,114.295 162.805,114.069 162.479,113.842ZM155.457,90.951C157.404,91.41 159.446,91.369 161.393,91.827C166.839,93.11 155.792,115.183 141.605,110.194C135.713,108.122 135.284,99.931 137.952,95.833C141.237,90.787 154.003,90.935 155.457,90.951Z" style="fill:white;"/>
            <path d="M515.034,57.5C515.039,54.727 514.913,46.231 515.286,45.369C515.622,44.593 518.235,44.572 518.5,44.57C520.502,44.554 522.506,44.627 524.507,44.544C528.051,44.396 524.917,22.38 526.649,20.649C527.83,19.468 528.061,19.902 547.52,20.149C551.084,20.194 549.666,26.518 549.857,42.478C549.895,45.643 556.102,44.408 576.497,44.568C577.271,44.574 578.691,44.487 578.84,46.457C580.07,62.698 577.843,62.794 576.52,62.851C566.348,63.29 550.633,61.416 549.87,64.54C549.836,64.681 549.858,98.158 549.86,98.492C549.904,106.426 556.786,108.385 560.566,107.863C568.38,106.784 569.375,96.68 569.434,96.469C569.787,95.218 570.508,94.498 585.309,99.927C587.451,100.713 585.486,107.779 585.303,108.434C579.772,128.318 558.283,128.936 549.551,127.267C522.327,122.064 526.195,105.224 526.146,70.5C526.139,65.27 527.743,62.895 522.5,62.854C520.477,62.837 518.451,62.931 516.432,62.806C514.988,62.717 515.031,57.939 515.034,57.5Z" style="fill:white;"/>
            <path d="M313.815,56.319C315.341,56.283 315.343,56.089 315.7,54.673C319.454,39.793 334.77,42.774 338.244,47.816C340.57,51.192 340.466,47.613 340.447,46.492C340.393,43.333 352.945,44.138 353.3,45.575C353.81,47.638 353.465,75.862 353.432,78.496C353.4,81.183 350.963,80.773 336.496,80.675C332.904,80.651 334.234,78.956 333.88,75.439C332.258,59.31 318.234,57.344 315.98,74.518C315.954,74.713 315.963,106.181 315.983,106.448C316.093,107.936 321.965,107.963 322.5,107.965C324.493,107.974 326.487,107.905 328.479,107.969C331.195,108.056 330.808,111.734 330.675,123.509C330.647,126.026 329.17,125.848 327.503,125.854C323.977,125.865 284.298,125.999 283.432,125.806C282.158,125.522 280.979,125.26 281.983,109.552C282.144,107.033 283.391,108.296 290.475,108.03C290.68,108.022 292.445,107.956 292.526,106.505C292.71,103.2 292.582,68.779 292.57,65.499C292.553,60.84 282.885,63.611 281.567,62.425C279.822,60.853 280.87,47.798 280.972,46.529C281.174,44.011 282.467,44.004 312.494,44.569C316.028,44.636 313.619,51.363 313.815,56.319Z" style="fill:white;"/>
            <path d="M234.697,55.447C234.898,55.631 235.099,55.814 235.3,55.997C235.547,55.769 236.013,56.541 236.261,56.312C236.292,56.283 238.395,43.595 249.5,43.595C255.867,43.595 259.051,47.672 259.601,48.377C262.22,51.731 260.702,45.365 262.547,44.655C262.776,44.567 273.408,44.314 274.047,44.953C274.353,45.26 275.346,79.846 273.49,80.479C272.838,80.701 256.641,81.03 255.728,80.244C255.208,79.795 255.096,57.664 241.757,63.966C236.258,66.564 236.892,75.805 236.966,105.495C236.98,111.106 251.637,104.783 251.675,110.496C251.75,121.605 252.362,125.642 249.531,125.847C238.842,126.619 209.014,125.934 205.492,125.853C201.846,125.769 203.224,120.258 202.966,110.505C202.96,110.28 202.904,108.177 204.396,108.081C212.441,107.567 213.436,108.393 213.526,106.505C213.586,105.243 213.59,64.796 213.544,64.493C213,60.942 202.208,65.145 202.149,60.52C201.974,46.691 201.747,44.589 204.503,44.568C233.345,44.342 234.169,43.384 235.3,45.575C235.663,46.278 235.843,46.628 234.697,55.447Z" style="fill:white;"/>
            <path d="M451.5,108.034C451.91,108.055 456.631,108.286 456.631,108.286C457.867,108.821 457.993,125.047 456.564,125.622C453.921,126.683 417.835,125.918 414.469,125.847C411.631,125.787 412.253,121.139 412.325,110.496C412.353,106.315 421.684,108.44 422.569,107.584C424.144,106.06 423.224,29.326 423.143,22.522C423.099,18.892 413.013,21.042 411.867,20.087C410.865,19.252 411.393,3.684 411.454,3.483C412.106,1.31 445.775,2.445 446.172,2.82C447.303,3.887 446.362,97.069 446.711,106.466C446.801,108.904 448.032,107.729 451.5,108.034Z" style="fill:white;"/>
            <path d="M466.034,119.5C466.035,116.737 465.814,109.125 466.483,108.483C467.085,107.904 467.206,108.159 474.556,107.954C474.751,107.948 476.448,107.901 476.526,106.505C476.71,103.2 476.582,68.779 476.57,65.499C476.554,61.163 467.874,63.161 466.417,62.764C464.128,62.14 465.031,45.414 465.796,44.875C466.634,44.284 498.933,44.579 499.425,44.7C501.842,45.298 499.47,105.476 500.754,107.307C501.432,108.274 509.621,108.125 509.632,108.129C511.586,108.675 511.601,125.213 509.583,125.764C508.908,125.948 467.924,125.837 467.432,125.806C465.991,125.717 466.031,120.017 466.034,119.5Z" style="fill:white;"/>
            <path d="M366.5,108.034C371.2,107.617 371.277,107.867 371.569,107.584C372.133,107.039 372.145,101.069 372.146,100.5C372.222,63.41 371.721,63.469 371.626,63.374C370.986,62.733 370.895,63.025 362.469,62.847C359.283,62.779 360.322,55.246 360.324,52.5C360.328,47.196 358.181,44.567 363.5,44.569C394.205,44.579 394.587,44.458 395.133,44.913C396.307,45.892 395.378,97.506 395.711,106.466C395.797,108.798 404.793,107.923 405.631,108.286C406.867,108.821 406.993,125.047 405.564,125.622C402.921,126.683 366.835,125.918 363.469,125.847C362.148,125.819 360.491,125.562 361.372,109.475C361.44,108.231 366.074,108.051 366.5,108.034Z" style="fill:white;"/>
            <path d="M684.022,111.501C684.935,88.551 710.719,94.573 713.524,105.493C719.796,129.908 685.511,135.433 684.022,111.501ZM707.698,119.798C698.008,129.51 680.981,117.032 689.757,103.683C695.999,94.187 719.158,101.258 707.698,119.798Z" style="fill:white;"/>
            <path d="M475.033,14.374C480.227,-1.209 499.126,2.48 501.66,15.474C505.672,36.043 469.975,37.235 475.033,14.374Z" style="fill:white;"/>
            <path d="M370.064,17.483C371.959,0.003 390.362,2.274 395.288,10.633C406.594,29.818 371.285,42.877 370.064,17.483Z" style="fill:white;"/>
            <path d="M706.148,117.807C702.614,124.24 699.087,110.193 696.868,114.694C696.463,115.514 697.541,120.168 694.507,119.462C692.355,118.961 692.387,103.94 694.399,103.211C700.256,101.09 709.89,105.284 705.447,111.464C705.023,112.054 703.415,112.996 703.666,114.447C703.797,115.204 705.924,117.559 706.148,117.807ZM700.388,111.011C698.539,110.818 696.471,112.139 696.704,107.52C696.888,103.863 707.524,106.425 700.388,111.011Z" style="fill:white;fill-opacity:0.98;"/>
        </g>
    </g>
</svg>
