<?xml version="1.0" encoding="UTF-8" standalone="no"?>
<!DOCTYPE svg PUBLIC "-//W3C//DTD SVG 1.1//EN" "http://www.w3.org/Graphics/SVG/1.1/DTD/svg11.dtd">
<svg width="100%" height="100%" viewBox="0 0 2136 670" version="1.1" xmlns="http://www.w3.org/2000/svg" xmlns:xlink="http://www.w3.org/1999/xlink" xml:space="preserve" xmlns:serif="http://www.serif.com/" style="fill-rule:evenodd;clip-rule:evenodd;stroke-linejoin:round;stroke-miterlimit:2;">
    <g transform="matrix(1,0,0,1,-239.447799,-924.54969)">
        <g transform="matrix(12.969765,0,0,12.969765,0,0)">
            <path d="M97.039,102.102L82.732,106.723L69.526,110.905C69.086,110.245 68.205,109.805 68.205,109.145L94.397,100.78C95.057,98.581 94.617,96.819 94.177,95.058L91.756,90.436C95.057,93.517 95.938,97.918 97.039,102.102ZM121.029,85.593C120.148,88.234 120.808,91.756 118.609,93.517C115.527,93.737 112.224,95.278 111.345,98.58L108.484,121.91C105.623,122.349 102.541,122.349 99.9,121.91C99.24,121.689 99.9,120.808 100.339,120.369C102.54,120.148 102.98,119.93 106.062,119.709L108.703,97.479C109.144,94.618 111.125,93.077 113.547,92.197C114.207,91.536 114.867,91.536 117.508,91.096C118.168,89.115 117.508,83.833 121.029,85.593Z"/>
        </g>
        <g transform="matrix(12.969765,0,0,12.969765,0,0)">
            <path d="M119.049,83.833C117.729,86.034 118.389,88.895 117.508,91.096C114.426,91.536 110.904,92.197 109.363,95.498C109.363,95.498 110.244,96.159 109.363,95.498L108.703,96.819L106.062,119.71L98.58,120.149L98.58,116.628L102.32,84.934L110.244,84.934C110.244,85.814 108.703,86.475 110.023,87.355C112.445,84.493 115.527,84.052 119.049,83.833Z" style="fill:white;"/>
        </g>
        <g transform="matrix(12.969765,0,0,12.969765,0,0)">
            <path d="M56.759,86.914C55.439,89.775 54.338,93.518 50.817,94.178L49.276,93.297C52.137,91.096 53.678,88.235 54.779,85.153C55.439,82.292 55.219,79.43 54.119,76.789C56.98,79.21 57.42,83.392 56.759,86.914ZM57.64,110.465C52.578,121.25 39.371,121.25 28.367,122.131L19.343,121.91L19.343,120.59L32.769,120.369C42.014,119.269 53.239,117.508 56.1,107.383C55.88,104.082 56.54,100.34 54.559,97.918C58.3,100.779 58.08,106.062 57.64,110.465ZM172.533,86.253L170.553,107.164L169.012,121.689L160.207,121.689L160.207,119.929C162.629,120.148 164.83,120.148 167.031,119.488L171.433,74.367C172.093,73.927 172.753,73.707 173.634,73.927L172.533,86.253ZM146.121,74.808L144.141,75.909L130.274,78.77C119.489,82.071 107.825,78.33 97.258,77.009C90.876,76.129 83.172,76.129 77.229,77.009L77.229,76.569C82.511,74.588 89.555,74.588 95.498,75.468L114.647,78.329C124.772,78.109 134.237,75.908 144.362,75.248C144.801,74.808 145.461,74.368 146.121,74.808Z"/>
        </g>
        <g transform="matrix(12.969765,0,0,12.969765,0,0)">
            <path d="M45.535,71.506C49.497,72.387 53.239,74.588 54.559,78.549C55.66,81.41 54.999,84.712 54.119,87.353C54.119,87.353 53.239,89.554 51.918,90.874L48.836,93.295C49.716,94.616 51.477,94.836 52.798,95.496C56.319,99.678 57.42,106.942 54.559,111.784L52.578,114.206C43.114,120.808 30.788,120.589 18.462,120.368L23.964,71.285L45.535,71.506ZM45.975,101.881C42.013,97.479 36.07,99.02 30.568,98.799C29.468,102.981 29.468,108.264 29.247,112.225C34.97,112.446 41.353,112.225 45.535,108.264C46.855,106.283 46.855,103.861 45.975,101.881ZM45.094,82.952C43.113,78.55 36.951,80.751 32.549,80.091C32.329,83.393 31.008,86.914 31.669,90.216C35.63,89.555 40.692,91.536 43.774,88.675C45.314,87.134 45.314,84.713 45.094,82.952Z" style="fill:white;"/>
        </g>
        <g transform="matrix(12.969765,0,0,12.969765,0,0)">
            <path d="M43.554,80.751L34.75,81.852C33.87,84.273 34.53,88.015 33.209,90.435L31.448,90.435C31.228,87.354 31.888,82.952 32.549,79.871C36.51,79.871 40.252,79.21 43.554,80.751Z"/>
        </g>
        <g transform="matrix(12.969765,0,0,12.969765,0,0)">
            <path d="M90.215,88.455C91.535,90.216 92.416,92.197 93.516,93.957C94.617,96.158 94.396,97.039 94.837,99.24C94.837,99.24 94.617,100.34 93.076,101C91.535,101.66 68.644,108.703 68.644,108.703C68.204,108.703 68.204,109.144 67.984,109.144C70.405,113.326 75.467,113.986 80.089,113.105C81.85,112.224 83.831,111.785 85.371,109.804L93.735,109.804C94.395,111.124 93.515,111.784 92.634,113.105C91.533,114.646 88.232,116.408 88.232,116.408C83.39,120.369 76.346,122.349 69.963,119.709C64.68,117.947 59.618,113.326 59.178,107.383C57.637,99.459 60.939,92.636 67.102,88.014C73.268,84.052 84.712,82.071 90.215,88.455ZM86.914,95.498C84.272,90.435 76.128,90.875 71.948,93.517C68.646,95.497 67.326,98.799 67.326,102.32L68.646,102.32L86.254,96.378L86.914,95.498ZM152.064,87.354C155.804,91.536 157.787,97.258 156.464,102.762L156.685,103.201C158.665,99.019 156.906,94.177 155.144,90.435C158.886,94.177 159.767,99.9 158.886,104.963C157.566,111.565 152.064,118.609 145.46,120.59C138.417,123.01 129.612,123.231 123.669,118.61C131.374,122.35 143.038,121.03 149.862,115.087L149.641,114.868C142.819,120.149 131.813,122.132 123.889,117.948C120.147,115.747 116.846,112.446 116.186,108.044C115.526,99.46 119.047,91.317 126.971,87.135C134.236,83.612 145.24,82.292 152.064,87.354ZM145.682,93.296C141.939,90.656 135.115,90.656 131.155,93.296C126.753,95.938 124.552,100.34 125.212,105.623C126.532,110.685 131.376,112.006 135.997,112.445C141.059,112.006 146.561,108.923 148.323,103.861C148.983,99.9 148.543,95.938 145.682,93.296Z" style="fill:white;"/>
        </g>
        <g transform="matrix(12.969765,0,0,12.969765,0,0)">
            <path d="M158.887,104.963C157.567,111.565 152.065,118.609 145.461,120.59C138.418,123.01 129.613,123.231 123.67,118.61C130.715,122.131 142.16,121.03 148.762,115.967C154.705,111.125 158.006,104.303 157.346,96.598C156.907,94.397 155.805,92.417 155.145,90.435C158.887,94.177 159.768,99.9 158.887,104.963Z"/>
        </g>
        <g transform="matrix(12.969765,0,0,12.969765,0,0)">
            <path d="M144.801,93.296C138.418,91.316 132.475,94.177 128.514,99.019C126.752,101.66 126.532,105.841 127.412,108.923C124.771,106.722 124.992,103.2 125.211,100.118C126.752,95.277 131.815,91.975 136.438,91.315C139.738,90.875 142.16,91.976 144.801,93.296Z"/>
        </g>
        <g transform="matrix(12.969765,0,0,12.969765,0,0)">
            <path d="M85.153,93.296C80.311,92.196 73.708,93.957 70.626,98.798C69.966,99.679 70.626,101.659 68.865,102.54L67.104,102.54C66.884,97.917 69.745,93.736 73.267,92.635C76.789,91.096 81.851,90.656 85.153,93.296Z"/>
        </g>
        <g transform="matrix(12.969765,0,0,12.969765,0,0)">
            <path d="M44.654,100.561C41.353,99.68 36.73,100.78 32.989,100.561C31.669,102.541 31.669,105.182 31.888,107.165C31.008,108.925 32.768,112.667 29.027,112.446C29.027,112.225 29.907,99.46 30.568,98.8C31.228,98.139 41.353,97.258 44.654,100.561ZM96.818,111.125C94.177,117.287 87.795,121.471 81.851,122.791C76.789,123.23 71.726,122.35 67.765,119.488C73.487,122.349 82.291,121.029 87.794,117.068C89.774,115.527 93.296,113.547 94.176,111.345C95.278,111.125 95.718,110.904 96.818,111.125Z"/>
        </g>
        <g transform="matrix(12.969765,0,0,12.969765,0,0)">
            <path d="M110.904,71.727C119.488,73.928 128.513,74.588 137.976,74.588L118.609,77.449C112.224,78.329 106.722,76.129 100.56,75.468L84.052,74.148L77.669,74.588C82.511,73.268 89.114,72.167 95.277,71.506L110.904,71.727ZM170.773,75.249L166.59,119.27L158.887,119.709L158.887,114.867L163.729,72.607L171.434,72.827L170.773,75.249Z" style="fill:white;"/>
        </g>
        <g transform="matrix(12.969765,0,0,12.969765,0,0)">
            <path d="M174.295,117.508C174.295,115.086 176.055,113.326 178.256,113.326C180.457,113.326 182.219,115.086 182.219,117.508C182.219,119.709 180.457,121.471 178.256,121.471C176.055,121.471 174.295,119.709 174.295,117.508ZM178.256,122.35C180.897,122.35 183.098,120.149 183.098,117.508C183.098,114.647 180.897,112.446 178.256,112.446C175.615,112.446 173.194,114.647 173.194,117.508C173.193,120.148 175.615,122.35 178.256,122.35ZM177.156,117.729L178.256,117.729L179.576,120.149L180.678,120.149L178.916,117.729C179.797,117.729 180.457,117.288 180.457,116.188C180.457,115.086 179.797,114.647 178.477,114.647L176.276,114.647L176.276,120.149L177.157,120.149L177.157,117.729L177.156,117.729ZM177.156,117.068L177.156,115.306L178.256,115.306C178.916,115.306 179.576,115.527 179.576,116.187C179.576,117.068 178.916,117.068 178.256,117.068L177.156,117.068Z"/>
        </g>
    </g>
</svg>
