<?xml version="1.0" encoding="UTF-8" standalone="no"?>
<!DOCTYPE svg PUBLIC "-//W3C//DTD SVG 1.1//EN" "http://www.w3.org/Graphics/SVG/1.1/DTD/svg11.dtd">
<svg width="100%" height="100%" viewBox="0 0 1949 975" version="1.1" xmlns="http://www.w3.org/2000/svg" xmlns:xlink="http://www.w3.org/1999/xlink" xml:space="preserve" xmlns:serif="http://www.serif.com/" style="fill-rule:evenodd;clip-rule:evenodd;stroke-linejoin:round;stroke-miterlimit:2;">
    <g transform="matrix(1,0,0,1,-675.736667,-787.73875)">
        <g transform="matrix(4.166667,0,0,4.166667,0,0)">
            <g id="Layer-3" serif:id="Layer 3">
                <g transform="matrix(1,0,0,1,395.9658,256.6233)">
                    <path d="M0,25.884C-10.851,27.18 -16.46,27.874 -28.505,26.746C-25.572,16.756 -20.329,6.801 -11.262,0.008C-2.057,-6.33 8.112,-6.28 14.829,-0.747C19.481,4.06 25.456,21.605 0,25.884M5.075,-20.654C-16.255,-20.593 -47.618,-5.79 -58.029,28.762C-66.457,56.782 -53.583,91.715 -8.376,93.405C5.313,93.559 19.183,91.347 32.104,86.507C31.874,86.773 28.888,71.381 28.954,71.381C18.897,74.86 3.608,77.473 -7.332,76.355C-22.81,73.549 -35.949,61.763 -33.048,41.382C-32.964,41.599 -9.133,45.191 7.931,40.471C43.056,29.92 45.974,8.258 40.278,-3.271C31.993,-20.065 11.796,-20.694 5.075,-20.654M131.571,-15.625L104.538,18.353L84.114,-15.625L53.519,-15.625L83.642,34.489L40.749,88.341L62.313,88.341L92.831,49.783L115.972,88.305L146.552,88.305L113.821,33.789L152.821,-15.625L131.571,-15.625ZM189.062,61.775L207.921,-15.625L180.899,-15.625L161.851,61.941C161.851,61.941 159.993,69.474 159.815,74.86C159.593,81.649 160.261,85.476 161.659,88.341L193.298,88.341C190.622,85.672 187.638,82.887 187.228,77.005C186.726,69.924 189.062,61.775 189.062,61.775M-87.664,61.775L-56.103,-67.566L-83.035,-67.566L-114.869,61.941C-114.869,61.941 -116.737,69.474 -116.897,74.86C-117.136,81.649 -116.454,85.476 -115.064,88.341L-83.422,88.341C-86.091,85.672 -89.076,82.887 -89.493,77.005C-89.986,69.924 -87.664,61.775 -87.664,61.775M-123.738,-51.245C-118.801,-51.395 -110.666,-51.116 -110.666,-51.116C-110.666,-51.116 -106.67,-67.229 -106.67,-67.45C-109.615,-67.467 -123.458,-67.631 -126.264,-67.522C-150.882,-67.522 -170.851,-52.565 -176.453,-29.638C-176.498,-29.597 -180.244,-15.563 -180.16,-15.625C-180.208,-15.563 -201.675,-15.625 -201.675,-15.625L-205.662,0.653L-184.223,0.653C-184.223,0.653 -198.83,61.625 -204.812,88.341L-177.89,88.341L-156.564,0.653L-123.675,0.653L-119.761,-15.625L-152.564,-15.625L-147.594,-34.435C-144.611,-46.02 -132.195,-51.088 -123.738,-51.245M204.032,-67.544C194.96,-67.439 187.399,-60.395 187.177,-51.833C186.944,-43.243 194.108,-36.398 203.208,-36.524C212.259,-36.636 219.802,-43.679 220.03,-52.24C220.274,-60.826 213.099,-67.675 204.032,-67.544M207.444,73.709C207.444,67.189 212.757,61.884 219.284,61.884C225.8,61.884 231.103,67.189 231.103,73.709C231.103,80.23 225.8,85.549 219.284,85.549C212.757,85.549 207.444,80.23 207.444,73.709M204.665,73.709C204.665,81.763 211.229,88.319 219.284,88.319C227.323,88.319 233.872,81.763 233.872,73.709C233.872,65.66 227.323,59.112 219.284,59.112C211.229,59.112 204.665,65.66 204.665,73.709M217.112,73.048L218.896,73.048C220.925,73.048 222.192,71.968 222.192,70.329C222.192,68.516 220.925,67.683 218.968,67.683C218.022,67.683 217.405,67.761 217.112,67.835L217.112,73.048ZM214.136,65.759C215.261,65.565 216.946,65.414 218.685,65.414C221.048,65.414 222.665,65.81 223.771,66.739C224.659,67.501 225.183,68.64 225.183,70.035C225.183,72.164 223.743,73.604 222.192,74.165L222.192,74.238C223.37,74.682 224.083,75.828 224.493,77.411C225.011,79.463 225.448,81.374 225.788,82.008L222.687,82.008C222.442,81.513 222.058,80.169 221.581,78.122C221.118,75.971 220.343,75.287 218.64,75.244L217.112,75.244L217.112,82.008L214.136,82.008L214.136,65.759Z" style="fill:rgb(196,38,46);fill-rule:nonzero;"/>
                </g>
                <g transform="matrix(-0.09979,0.995008,0.995008,0.09979,442.632247,166.612704)">
                    <path d="M233.805,-258.414C280.8,-180.505 275.94,-105.447 250.55,-23.245C226.444,54.748 200.228,131.204 233.805,211.531C186.826,133.6 191.661,58.538 217.061,-23.664C241.16,-101.638 267.409,-178.137 233.805,-258.414" style="fill:rgb(196,38,46);fill-rule:nonzero;"/>
                </g>
            </g>
        </g>
    </g>
</svg>
