<?xml version="1.0" encoding="UTF-8"?>
<svg id="Capa_1" data-name="Capa 1" xmlns="http://www.w3.org/2000/svg" viewBox="0 0 400 100">
  <path d="M125.92,32.03v-2.07h-10.09l-21.42,29.69-3.4-29.69h-10.34l-.55,2.05.64.05c1.81.16,2.61.36,2.96.5.42.17.88.49,1.36.95l-8.18,28.01c-.78,2.68-1.39,3.75-1.77,4.17-.71.81-1.93,1.22-3.61,1.22h-1.16l-.63,2.11h13.65l.61-2.06-.67-.04c-2.4-.16-3.16-.47-3.4-.64-.37-.26-.54-.63-.54-1.15,0-.44.15-1.47.85-3.89l6.05-20.94,3.31,28.72h1.87l20.55-28.62-5.44,19.06c-.81,2.81-1.44,4.63-1.88,5.42-.4.73-.85,1.23-1.35,1.48-.66.37-1.67.55-2.99.55h-1.17l-.57,2.11h17.13l.51-2.11h-1.35c-1.41,0-2.43-.24-3.05-.71-.37-.27-.54-.66-.54-1.22,0-.75.2-1.81.6-3.16l7.04-24.09c.58-2.01,1.11-3.37,1.59-4.04.45-.64.94-1.06,1.44-1.26.14-.05.75-.19,3.41-.36l.5-.03Z" style="fill: #e32213;"/>
  <path d="M156.99,35.86c-1.15-2.22-2.76-3.93-4.78-5.07-2.02-1.13-4.36-1.71-6.97-1.71-3.09,0-6.06.65-8.81,1.93-2.74,1.27-5.34,3.11-7.75,5.47-2.41,2.36-4.5,5.33-6.23,8.83-1.74,3.52-2.62,7.14-2.62,10.75,0,2.06.49,4.22,1.46,6.41.98,2.21,2.52,4.02,4.57,5.37,2.05,1.35,4.63,2.04,7.66,2.04,4.16,0,8.23-1.21,12.12-3.61,3.88-2.39,7.06-5.91,9.46-10.44,2.4-4.53,3.61-8.93,3.61-13.07,0-2.37-.58-4.69-1.71-6.9M139.26,65.81c-1.55.8-3.15,1.2-4.76,1.2-2.66,0-4.57-.92-5.84-2.83-1.3-1.95-1.96-4.22-1.96-6.75,0-3.63.86-7.55,2.54-11.64,1.37-3.33,2.94-6.06,4.65-8.11,1.7-2.04,3.44-3.52,5.15-4.41,1.7-.88,3.46-1.33,5.24-1.33,2.59,0,4.46.88,5.73,2.7,1.29,1.85,1.95,4.01,1.95,6.43,0,3.35-.75,7.03-2.24,10.92-1.48,3.89-3.34,7.13-5.51,9.63-1.72,1.97-3.39,3.38-4.96,4.19" style="fill: #e32213;"/>
  <path d="M195.89,45.95c0-2.98-.77-5.8-2.29-8.41-1.53-2.61-3.6-4.56-6.16-5.77-2.54-1.21-6.46-1.82-11.66-1.82h-12.53l-.68,2.11h1.35c1.69,0,2.31.29,2.52.47.36.29.53.7.53,1.26,0,.97-.26,2.35-.76,4.11l-6.73,22.97c-.65,2.3-1.24,3.84-1.76,4.59-.3.45-.77.82-1.42,1.09-.3.13-1.03.3-2.77.35h-.37s-.74,2.11-.74,2.11h16.85c3.92,0,7.25-.42,9.89-1.24,2.65-.83,5.14-2.12,7.4-3.85,2.25-1.72,3.95-3.32,5.05-4.76,1.1-1.45,2.1-3.39,2.97-5.77.87-2.39,1.31-4.89,1.31-7.42M188.87,45.48c0,3.79-.67,7.21-2,10.17-1.32,2.95-3.11,5.29-5.3,6.96-1.54,1.15-3.56,2.03-5.99,2.61-2.46.59-5.17.9-8.05.9-1.27,0-1.89-.12-2.18-.22h-.03c-.22-.07-.38-.18-.5-.36-.13-.19-.2-.37-.2-.56,0-.25.12-1.09.9-3.8l8.14-28.06c1.39-.06,2.54-.09,3.43-.09,3.85,0,6.81,1.03,8.79,3.05,1.98,2.03,2.99,5.19,2.99,9.42" style="fill: #e32213;"/>
  <path d="M220.73,66.55c-.51-.22-.91-.55-1.21-1.01v-.02c-.23-.3-.33-.77-.33-1.4,0-.45.07-1.41.22-2.86l2.94-32.18h-1.84l-22.88,31.09c-2.06,2.79-3.62,4.63-4.63,5.46-.97.8-2.07,1.21-3.34,1.27h-.38s-.62,2.11-.62,2.11h12.36l.62-2.08-.69-.02c-.99-.03-1.69-.22-2.07-.57-.37-.33-.55-.7-.55-1.14,0-.37.1-.79.29-1.23.14-.33.54-1.01,1.59-2.43l3.71-5.02h10.02l-.39,4.24c-.23,2.61-.43,3.59-.56,3.95-.26.71-.61,1.21-1.06,1.51-.67.46-1.57.69-2.67.69h-1.04l-.63,2.11h16.09l.63-2.11h-.72c-1.69,0-2.49-.19-2.86-.35M215.49,40.84l-1.22,12.57h-8.02l9.24-12.57Z" style="fill: #e32213;"/>
  <path d="M258.24,36.63c0,1.11-.17,2.4-.52,3.82l-.16.66h2.14l3.44-11.15h-30.02l-2.95,11.15h2.14l.11-.4c.5-1.88,1.15-3.34,1.93-4.35.76-.98,1.78-1.75,3.02-2.27,1.26-.53,2.97-.8,5.08-.8h1.56l-7.68,26.29c-.77,2.64-1.38,4.38-1.8,5.18-.39.74-.82,1.25-1.27,1.51-.7.41-1.74.62-3.09.62h-1.13l-.63,2.11h17.65l.68-2.11h-2.03c-1.73,0-2.5-.31-2.84-.58-.47-.36-.69-.78-.69-1.33,0-.49.24-1.92,1.41-5.93l7.4-25.78h2.6c3.27,0,4.27.42,4.57.66.72.59,1.07,1.46,1.07,2.67" style="fill: #e32213;"/>
  <path d="M287.25,57.66c-1.68,3.09-3.6,5.28-5.7,6.52-2.1,1.23-4.96,1.86-8.49,1.86h-3.36c-1.63,0-1.99-.22-2.05-.28-.34-.27-.5-.55-.5-.87,0-.58.17-1.46.51-2.62l3.56-12.19h3.22c2.18,0,3.05.17,3.4.31.47.19.84.48,1.1.88.27.39.4.94.4,1.63,0,.77-.16,1.72-.48,2.82l-.2.68h2.24l4.2-14.85h-2.11l-.13.34c-.78,1.98-1.7,3.34-2.75,4.05-1.04.71-2.8,1.07-5.22,1.07h-2.85l4.04-13.94h4.42c3.93,0,5.44.26,6.01.47,1.11.41,1.96,1.01,2.53,1.77.42.58.63,1.31.63,2.18,0,.55-.06,1.25-.19,2.08l-.09.61h2.08l2.63-10.23h-28.39l-.68,2.11h1.32c1.63,0,2.29.26,2.57.48.37.3.54.71.54,1.25,0,.92-.26,2.29-.76,4.08l-6.68,22.92c-.67,2.38-1.25,3.95-1.73,4.67-.28.43-.75.8-1.39,1.09-.3.13-1.02.3-2.74.35h-.37s-.74,2.11-.74,2.11h30.53l3.95-11.63h-2.1l-.15.28Z" style="fill: #e32213;"/>
  <path d="M320.84,57.15l-.88,1.52c-1.3,2.18-2.21,3.55-2.7,4.08-.92.95-1.94,1.68-3.02,2.15-1.5.64-3.57.97-6.15.97h-3.67c-1.37,0-1.73-.22-1.82-.3-.37-.3-.56-.6-.56-.87,0-.62.25-1.77.73-3.44l6.59-22.72c.93-3.2,1.38-4.24,1.59-4.57.43-.67.96-1.16,1.6-1.45.65-.3,1.82-.45,3.48-.45h.43l.46-2.11h-16.56l-.66,2.04.66.07c.21.02.47.03.81.03,1.61,0,2.29.26,2.58.48.38.29.56.68.56,1.23,0,.84-.28,2.2-.82,4.05l-6.7,23.11c-.64,2.18-1.24,3.69-1.78,4.5-.31.45-.82.83-1.5,1.13-.3.12-1.04.28-2.81.32h-.36s-.79,2.11-.79,2.11h29.34l4.07-11.85h-2.1Z" style="fill: #e32213;"/>
  <path d="M352.64,66.55c-.51-.22-.91-.55-1.21-1.01v-.02c-.23-.3-.33-.77-.33-1.4,0-.45.08-1.41.22-2.86l2.94-32.18h-1.84l-22.88,31.09c-2.06,2.79-3.62,4.63-4.63,5.46-.97.8-2.07,1.21-3.34,1.27h-.38s-.62,2.11-.62,2.11h12.36l.62-2.08-.69-.02c-.99-.03-1.69-.22-2.08-.57-.37-.33-.55-.7-.55-1.14,0-.37.1-.79.29-1.23.14-.33.54-1.01,1.59-2.43l3.71-5.02h10.02l-.39,4.24c-.23,2.61-.43,3.59-.56,3.95-.26.71-.61,1.21-1.06,1.51-.67.46-1.57.69-2.67.69h-1.04l-.63,2.11h16.09l.63-2.11h-.72c-1.69,0-2.49-.19-2.86-.35M347.4,40.84l-1.22,12.57h-8.02l9.24-12.57Z" style="fill: #e32213;"/>
  <path d="M384.24,53.02c-.86-1.57-2.67-3.66-5.53-6.4-2.75-2.64-4.53-4.56-5.28-5.71-.71-1.09-1.08-2.25-1.08-3.45,0-1.35.54-2.52,1.65-3.56,1.12-1.05,2.55-1.56,4.37-1.56,2.29,0,4.16.68,5.55,2.01,1.4,1.35,2.08,3.03,2.08,5.16,0,.67-.04,1.58-.11,2.68l-.04.57h1.95l3.16-13.67h-2.05l-.15.27c-.6,1.05-1,1.46-1.22,1.62-.3.22-.66.32-1.09.32-.27,0-.51-.02-.73-.07-.1-.03-.45-.17-1.73-.68-1.58-.65-2.65-1.03-3.26-1.15-.97-.21-2.01-.32-3.09-.32-3.23,0-5.92,1-8,2.98-2.08,1.98-3.14,4.4-3.14,7.19,0,1.75.46,3.44,1.36,5.03.55.96,1.74,2.37,3.64,4.28,3.76,3.85,6.1,6.57,6.95,8.06.53.96.8,2.04.8,3.21,0,1.82-.6,3.45-1.78,4.85-1.17,1.39-2.87,2.06-5.17,2.06-2.48,0-4.51-.76-6.03-2.26-1.54-1.52-2.29-3.43-2.29-5.86,0-.88.07-2,.19-3.34l.06-.59h-1.97l-3.38,15.16h2.09l.14-.33c.53-1.28,1.21-1.91,2.09-1.91.42,0,.97.13,1.63.39,2.17.82,3.72,1.32,4.73,1.54,1,.21,2.1.32,3.25.32,2.34,0,4.52-.52,6.5-1.54,1.99-1.03,3.54-2.51,4.61-4.4,1.06-1.87,1.6-3.84,1.6-5.85,0-1.78-.44-3.48-1.3-5.06" style="fill: #e32213;"/>
  <g>
    <path d="M34.88,52.07c-.07-.23-.2-.37-.45-.37s-.35.09-.45.37c-1.59,4.37-4.09,6.47-8.91,8.24-3.66,1.35-5.7,2.28-7.31,4.64-.68,1-1.43,2.52-1.43,4.04,0,3.68,3.12,6.66,6.97,6.66,1.57,0,9.19-1.6,11.93-13.24,0,0,1.29-4.56-.35-10.34" style="fill: #e32213;"/>
    <path d="M37.22,52.44c-.22-.12-.42-.13-.59.04-.17.17-.18.3-.04.56,2.11,4.16,1.89,7.34-.21,11.85-1.59,3.42-2.34,5.46-1.73,8.22.26,1.17.86,2.74,1.98,3.82,2.72,2.6,7.13,2.6,9.85,0,1.11-1.06,5.31-7.34-1.36-17.42,0,0-2.46-4.1-7.9-7.07" style="fill: #e32213;"/>
    <path d="M49.97,50.74s-4.78-1.21-10.81.38c-.24.06-.39.19-.39.43s.1.33.39.43c4.58,1.5,6.78,3.88,8.66,8.49,1.42,3.49,2.4,5.44,4.88,6.96,1.05.64,2.64,1.35,4.23,1.35,3.85-.01,6.95-3.01,6.94-6.68,0-1.5-1.71-8.77-13.9-11.35" style="fill: #e32213;"/>
    <path d="M46.95,41.34s-4.29,2.35-7.41,7.54c-.12.21-.13.4.04.57.18.17.32.17.59.05,4.35-2.02,7.67-1.81,12.4.2,3.58,1.53,5.71,2.25,8.6,1.66,1.22-.25,2.87-.82,4-1.89,2.72-2.6,2.73-6.81,0-9.41-1.11-1.06-7.68-5.08-18.23,1.28" style="fill: #e32213;"/>
    <path d="M38.15,47.03c.07.23.2.37.45.37.25,0,.35-.1.45-.37,1.57-4.38,4.07-6.48,8.89-8.27,3.66-1.36,5.69-2.3,7.29-4.66.68-1,1.42-2.53,1.41-4.04-.01-3.68-3.14-6.65-6.99-6.64-1.57,0-9.18,1.63-11.89,13.28,0,0-1.27,4.56.39,10.34" style="fill: #e32213;"/>
    <path d="M35.84,46.66c.21.12.41.13.59-.04.18-.17.18-.3.05-.57-2.08-4.17-1.85-7.34.28-11.85,1.61-3.42,2.37-5.45,1.78-8.21-.25-1.17-.84-2.75-1.95-3.83-2.71-2.62-7.12-2.64-9.86-.05-1.12,1.06-5.36,7.31,1.25,17.43,0,0,2.44,4.11,7.86,7.12" style="fill: #e32213;"/>
    <path d="M23.07,48.25s4.77,1.26,10.82-.28c.24-.06.39-.19.39-.43,0-.24-.1-.33-.39-.43-4.56-1.54-6.74-3.94-8.57-8.57-1.39-3.51-2.35-5.46-4.82-7.01-1.04-.65-2.63-1.37-4.22-1.38-3.85-.02-6.98,2.94-7.01,6.62,0,1.5,1.62,8.79,13.79,11.48" style="fill: #e32213;"/>
    <path d="M33.49,50.21c.12-.2.14-.4-.04-.56-.17-.17-.32-.17-.6-.04-4.36,2-7.68,1.79-12.4-.24-3.58-1.53-5.71-2.25-8.59-1.68-1.22.24-2.88.81-4,1.88-2.73,2.59-2.74,6.81-.03,9.42,1.11,1.07,7.66,5.1,18.24-1.24,0,0,4.29-2.34,7.42-7.53" style="fill: #e32213;"/>
    <path d="M53.97,73.69c0-.06,0-.12,0-.18v-.18c0-.12-.05-.25-.14-.38-.09-.13-.24-.21-.43-.24.16-.02.28-.06.37-.11.17-.1.25-.26.25-.48,0-.31-.13-.51-.39-.62-.15-.06-.38-.09-.69-.09h-.89v2.42h.45v-.95h.35c.24,0,.4.03.5.08.16.09.24.27.24.56v.27s.01.02.02.03c0,0,0,.02,0,.02h.42l-.02-.03s-.02-.06-.02-.13M53.3,72.54c-.1.04-.24.05-.43.05h-.4v-.88h.38c.25,0,.43.03.54.09.11.06.17.18.17.36s-.09.31-.26.38" style="fill: #e32213;"/>
    <path d="M54.59,71.09c-.45-.43-1-.64-1.64-.64s-1.18.21-1.63.64c-.45.43-.68.95-.68,1.56s.22,1.14.67,1.57c.45.43.99.65,1.63.65s1.19-.21,1.64-.65c.45-.44.68-.96.68-1.57s-.22-1.13-.68-1.56M54.36,74c-.39.37-.85.56-1.41.56s-1.02-.19-1.41-.56c-.38-.37-.58-.83-.58-1.35s.19-.97.58-1.34c.39-.38.86-.56,1.4-.56s1.02.19,1.41.56c.39.37.58.82.58,1.34s-.19.98-.58,1.35" style="fill: #e32213;"/>
  </g>
  <path d="M388.48,67.39c0-.06,0-.12,0-.17v-.17c0-.12-.04-.24-.13-.36-.08-.12-.22-.2-.4-.23.14-.02.26-.06.33-.11.15-.1.23-.25.23-.46,0-.29-.12-.49-.36-.59-.14-.06-.35-.08-.64-.08h-.82v2.32h.41v-.91h.32c.22,0,.37.02.46.08.14.09.22.26.22.53v.26s.01.02.01.02c0,0,0,.02,0,.02h.39l-.02-.03s-.01-.06-.02-.12M387.88,66.28c-.09.03-.22.05-.39.05h-.37v-.84h.35c.23,0,.39.03.5.09.1.06.16.17.16.34s-.08.3-.24.36" style="fill: #e1251b;"/>
  <path d="M389.06,64.88c-.41-.41-.91-.61-1.5-.61s-1.08.21-1.49.61c-.42.42-.62.91-.62,1.49s.2,1.09.61,1.5c.41.42.91.62,1.5.62s1.09-.21,1.5-.62c.41-.42.62-.92.62-1.5s-.2-1.08-.62-1.49M388.85,67.68c-.35.36-.78.54-1.29.54s-.94-.18-1.29-.54c-.35-.36-.53-.79-.53-1.3s.18-.93.53-1.29c.36-.36.78-.54,1.29-.54s.93.18,1.29.54c.35.36.53.79.53,1.29s-.18.94-.53,1.3" style="fill: #e1251b;"/>
</svg>