<svg version="1.1" id="PAPER_MATE_LOGOS_2_CLR" xmlns:x="ns_extend;" xmlns:i="ns_ai;" xmlns:graph="ns_graphs;" inkscape:version="1.0.1 (c497b03c, 2020-09-10)" xmlns:cc="http://creativecommons.org/ns#" xmlns:dc="http://purl.org/dc/elements/1.1/" xmlns:inkscape="http://www.inkscape.org/namespaces/inkscape" xmlns:rdf="http://www.w3.org/1999/02/22-rdf-syntax-ns#" xmlns:sodipodi="http://sodipodi.sourceforge.net/DTD/sodipodi-0.dtd" xmlns:svg="http://www.w3.org/2000/svg" xmlns="http://www.w3.org/2000/svg" xmlns:xlink="http://www.w3.org/1999/xlink" x="0px" y="0px" viewBox="0 0 440.8 96" style="enable-background:new 0 0 440.8 96;" xml:space="preserve">
 <style type="text/css">
  .st0{fill:#FFFFFF;}
	.st1{fill:#EE3124;}
 </style>
 <metadata id="metadata144">
  <rdf:RDF>
   <cc:Work rdf:about="">
    <dc:format>
     image/svg+xml
    </dc:format>
    <dc:type rdf:resource="http://purl.org/dc/dcmitype/StillImage">
    </dc:type>
    <dc:title>
    </dc:title>
   </cc:Work>
  </rdf:RDF>
  <sfw xmlns="ns_sfw;">
   <slices>
   </slices>
   <sliceSourceBounds height="96" width="440.8" x="0" y="0">
   </sliceSourceBounds>
  </sfw>
 </metadata>
 <sodipodi:namedview bordercolor="#666666" borderopacity="1" fit-margin-bottom="0" fit-margin-left="0" fit-margin-right="0" fit-margin-top="0" gridtolerance="10" guidetolerance="10" id="namedview142" inkscape:current-layer="PAPER_MATE_LOGOS_2_CLR" inkscape:cx="175.54787" inkscape:cy="47.986874" inkscape:document-rotation="0" inkscape:pageopacity="0" inkscape:pageshadow="2" inkscape:window-height="847" inkscape:window-maximized="0" inkscape:window-width="1440" inkscape:window-x="0" inkscape:window-y="25" inkscape:zoom="2.4865012" objecttolerance="10" pagecolor="#ffffff" showgrid="false">
 </sodipodi:namedview>
 <g>
  <path id="path123" class="st0" d="M292.9,28.1c0.9,1.9-6.7,43-6.8,45.6c0,2.6,2.9,4.9,4.9,4.9s4.3-3.2,7.1-7.2
		c4.4-6.5,18.3-34.1,25.4-42c-0.5,6.4-2.6,35.1-2.6,38.7c0,3.8,3,8.5,4.4,8.5c1.8,0,3.1-0.8,3.1-2.3c0-1-0.1-1.6-0.1-4.1
		c0.1-7.7,5.1-45.1,5.2-49s-4.2-5.9-5.2-5.9c-1.6,0.1-3,1-3.6,2.5c-2.5,5-23.9,35.5-27.1,39.8c1.5-10.9,5.7-38.3,5.7-41.6
		c0-1.4-2.6-4.3-5.6-4.3c-2.3,0-4.4,3.6-5.7,5.7c-3.2,4.9-31.2,49.1-36.1,55c-0.6,0.7,1.1,3.6,4.8,3.6c4.9,0,10.5-15.7,18.5-28.4
		C283,41.7,291.9,29.2,292.9,28.1">
  </path>
  <path id="path125" class="st0" d="M342.6,67.7c-0.7,0-1.3-0.4-1.3-1.6c0.1-7.6,13.3-23.1,19.3-23.1c2.3,0,3.6,1,3.6,3.1
		C364.2,52.6,347.2,67.8,342.6,67.7 M413.4,32.5c-5.9-0.6-11.9-0.7-17.9-0.2c0.8-2.1,1.4-4.3,1.7-6.5c0-2.4-1.6-3.7-4.6-3.7
		c-1.9,0-4.5,1.2-4.5,2c0,0.2,0.5,0.6,0.5,1.1c-0.3,2.6-1,5.2-1.9,7.7c-4.5,0.4-8.3,0.7-10.3,0.7c-1.6,0-3.2-0.4-4.6-0.4
		c-1.1,0-2.1,0.9-2.1,2c0,0,0,0.1,0,0.1c0,0.9,3,3.9,5.5,3.9c1.2,0,5.1-0.3,9.7-0.7c-2.2,7.3-3.5,14.8-3.8,22.4
		c-5.1,5.5-10.3,9-13,9c-1.8,0-2.6-1.2-2.6-3.8c0-4.6,5.1-14.6,5.1-18.7S365,37.3,360,37.2c-12.7-0.1-24.7,17.8-24.8,29.6
		c0,4.9,3.7,8.6,7.5,8.6c5.4,0,11.5-6.8,15.7-11.8c1.1,7,3.7,12.4,8.9,12.4c4.8,0,9.7-3.5,14-8.2c0.7,6.2,2.6,10.8,5.5,13.6
		c1.9-0.1,2.6-0.7,2.5-3.1c-1-4.7-1.7-6.1-1.7-11.1c0.1-9.2,3.4-20.8,6.1-29.5c2-0.1,3.9-0.2,5.5-0.2c6.1,0,16.6,1.4,17.7,1.4
		c1,0.1,1.8-0.7,1.9-1.7c0-0.1,0-0.2,0-0.3C418.8,36.2,415.4,32.7,413.4,32.5">
  </path>
  <path id="path127" class="st0" d="M400.9,64.8c7.2-1.8,17.2-9.6,17.2-13.6c0-1.2-0.8-2-2.4-2C410.9,49.1,401.1,57.3,400.9,64.8
		 M401.4,68c1,3,3.6,4.8,7.5,4.9c8.9,0.1,24.2-9.8,24.2-14.9c0-0.7-0.5-0.8-0.5-1.1c0-0.6,2.1-1.7,3.6-1.6c2.1-0.1,3.9,1.6,4,3.7
		c0,0.1,0,0.2,0,0.3c0,7.1-16.4,18.9-29.3,18.8c-9.5-0.1-16-8.3-16-15.5c0.1-9.1,10.2-18.7,18.1-18.6c6.2,0,9.3,3.6,9.2,7.2
		C422.2,57.2,412.2,65.9,401.4,68">
  </path>
  <path id="path129" class="st0" d="M163.6,59.6c8.6-3,18.1-13.7,18.1-18.4c0-1.2-0.6-2.1-2.2-2.1C173.9,39.2,164,50.8,163.6,59.6
		 M164.1,62.8c1,2.3,2.8,3.8,4.8,3.8c7.9,0.1,24.8-18.8,24.8-24.1c0-0.5-0.5-0.7-0.5-1c0.9-1.7,2.6-2.7,4.5-2.8c2,0,3.7,1.6,3.8,3.6
		c0,0.1,0,0.2,0,0.4c0,2.1-1.3,4.8-2.6,8.1h0.5c2.7-4.3,7.7-10.6,15.5-10.6c5.2,0,9.5,4.2,9.6,9.4c0,1.6-0.3,2.4-1.3,2.4
		c-1.7,0-2.2-5.5-8.8-5.6c-7.3,0-14.3,8.8-14.4,24.9c0,1.8-0.6,3.9-2.9,3.9c-3.1,0-6.1-2.6-6.1-4.7s1.8-10.4,2.6-16.2h-0.3
		c-4.8,6.2-14.8,18.6-23.7,18.5c-5.4,0-12.2-6.2-12.1-16c0.1-9.5,10.7-24,20.6-23.9c5.4,0,8.5,3.4,8.5,8.1
		C186.5,47.4,175.8,60.6,164.1,62.8">
  </path>
  <path id="path131" class="st0" d="M103.6,42.9c-0.1,6-15.4,26.8-24.5,26.7c-1.7,0-2.7-1.5-2.7-4.3c0.1-8.2,14.7-25.2,24.9-25.2
		C102.8,40.2,103.6,41,103.6,42.9 M131.3,71.8c8.7,0.1,23.3-8.9,23.3-19c0.1-8.3-6-13.7-14.9-13.8c-8.6-0.1-14.4,2.4-16.4,6
		c-2.7,4.8-15.4,23.2-19.9,23.2c-0.6,0-1-0.4-1-1c0-0.1,0-0.1,0-0.2c0-4.9,6.5-14.1,6.5-16.3c0-0.7-0.2-0.9-1.2-1.2
		c1.1-2.2,1.6-4.7,1.6-7.1c0-3.6-3.7-8.6-8.1-8.6c-13.6-0.1-30.7,17.6-30.8,32.7c0,5.6,4.5,10.4,9.2,10.4c5.3,0,11.4-5.1,14.9-9.6
		c1.7,4.4,5.1,8.8,9.5,8.8c4.4,0,11.8-9.2,15-14.2c0.1,0,0.2,0,0.4,0c-2.6,10.2-7.7,26.3-7.7,28.5c0,2.5,1.7,5.4,4.2,5.4
		c1.6,0,6-16.8,8.3-25.4C126.5,71.4,128.9,71.8,131.3,71.8 M125.5,65.4c0.9-3.7,3.7-15.5,5-19.5c2.7-1.3,5.7-2,8.8-2
		c3.9,0,8.2,1,8.2,5C147.5,54.9,134.5,63.9,125.5,65.4">
  </path>
  <path id="path133" class="st0" d="M89.4,21.3C89.5,10.4,78.8,0.1,59.7,0C33.2-0.2,0.1,14.1,0,33.6C0,40.3,6,44.9,11.3,45
		c0.6,0,1-0.4,1.1-0.9c0-0.1,0-0.1,0-0.2c0-1.1-4.7-3.5-4.6-7.7c0.1-14.5,31.2-29.1,53.1-29c12.2,0.1,21,3.7,21,12.9
		c-0.1,12.1-18.2,25.8-35,30.6C49,44,51,37.5,52.3,32.7c0.8-2.8,2.6-5.7,2.6-8c0-2.1-2.1-3.3-4.1-3.4c-3.5,0-6.6,3-6.6,3.6
		c0,0.2,0.7,0.2,0.7,1.8c0,2.6-3.5,13.4-7.2,25.7c-0.9,0.1-1.9,0.1-2.8,0.1c-3.5,0-5.4-1.1-5.4-2.5c0-0.4,0.1-0.6-0.1-0.6
		c-2.4,0.1-4.2,2-4.3,4.4c0,2.7,2.9,5.2,9.6,5.3h1c-2.2,7.6-4,15.2-5.4,23c-0.3,1.7,1.5,5.1,4.1,5.1c1.2,0,2.2-3.6,3.2-7.5
		c1.3-4.6,3.9-12.9,6.7-21.6C65,54.4,89.3,39,89.4,21.3">
  </path>
  <path id="path135" class="st0" d="M433.9,43.6c-3.9,0.1-7-3-7.1-6.9s3-7,6.9-7.1c3.9-0.1,7,3,7.1,6.9c0.1,3.8-2.9,7-6.7,7.1
		C434,43.6,433.9,43.6,433.9,43.6 M433.9,30.6c-3.3-0.1-6.1,2.5-6.1,5.9s2.5,6.1,5.9,6.1c3.3,0.1,6.1-2.5,6.1-5.9c0-0.1,0-0.1,0-0.2
		C439.8,33.3,437.2,30.6,433.9,30.6C433.9,30.6,433.9,30.6,433.9,30.6 M435,40l-1.2-3h-1.2v3h-1.1v-7.3h2.4c1.3,0,2.4,0.5,2.4,2.2
		c0.1,0.8-0.4,1.6-1.2,1.9l1.3,3.3L435,40z M433.9,33.8h-1.3v2.1h1.3c0.7,0,1.3-0.2,1.3-1.1C435.2,34.3,434.9,33.8,433.9,33.8">
  </path>
  <path id="path137" class="st1" d="M242.9,21.4c1.3-3.9,3.8-6.1,7.7-6.1c4.9,0,7.8,4.4,7.8,8.8c-0.1,8.8-11.4,16.5-15.8,20.8
		c-4.4-4.4-15.6-12.2-15.5-21c0-4.4,3-8.8,7.9-8.7c4,0,6.4,2.3,7.6,6.2L242.9,21.4z">
  </path>
  <path id="path139" class="st1" d="M242.7,54c1.3-3.9,3.8-6.1,7.7-6.1c5,0,7.8,4.5,7.8,8.8c0,8.8-11.4,16.5-15.8,20.8
		c-4.4-4.4-15.6-12.2-15.5-21c0-4.4,3-8.8,7.9-8.7c4,0,6.4,2.3,7.6,6.2L242.7,54z">
  </path>
 </g>
</svg>