<?xml version="1.0" encoding="UTF-8" standalone="no"?>
<!DOCTYPE svg PUBLIC "-//W3C//DTD SVG 1.1//EN" "http://www.w3.org/Graphics/SVG/1.1/DTD/svg11.dtd">
<svg width="100%" height="100%" viewBox="0 0 2214 381" version="1.1" xmlns="http://www.w3.org/2000/svg" xmlns:xlink="http://www.w3.org/1999/xlink" xml:space="preserve" xmlns:serif="http://www.serif.com/" style="fill-rule:evenodd;clip-rule:evenodd;stroke-linejoin:round;stroke-miterlimit:2;">
    <g transform="matrix(1,0,0,1,-110.299996,-1054.126372)">
        <g transform="matrix(12.969765,0,0,12.969765,0,0)">
            <path d="M160.92,87.093C160.92,87.268 160.482,87.268 160.482,87.093C160.308,86.962 160.482,86.656 160.613,86.656C160.92,86.656 161.225,86.788 160.92,87.093ZM177.305,91.026C179.141,94.652 178.223,99.459 179.141,103.26C178.703,103.698 178.092,103.086 177.786,102.78C175.208,99.46 177.175,94.172 174.903,90.72L173.985,89.977C175.207,89.059 176.562,89.977 177.305,91.026ZM156.682,103.566C156.202,103.697 156.071,103.259 156.375,102.953C156.682,102.953 156.812,103.391 156.682,103.566ZM159.084,103.26C158.953,103.26 158.953,103.391 158.779,103.567C158.648,103.391 158.517,103.087 158.648,102.954C158.779,102.953 158.953,103.26 159.084,103.26ZM73.794,85.214C74.974,86.131 74.886,87.748 74.493,89.015C73.881,90.719 72.046,91.025 70.473,91.112C68.944,91.156 67.37,90.806 66.584,89.539C65.972,88.316 66.235,86.699 67.065,85.694C68.77,84.078 71.916,83.947 73.794,85.214ZM59.201,107.105C59.201,107.585 59.595,107.847 59.988,107.89L60.468,107.847L60.468,108.023C58.371,109.683 55.574,110.644 52.909,109.683C52.21,109.245 51.467,108.503 51.292,107.671L51.335,105.618L55.049,86.087L55.398,85.912C58.02,85.781 60.598,85.475 63.263,85.3L59.201,107.105ZM138.637,93.91C139.248,94.915 139.073,96.225 138.942,97.405L137.194,107.237C137.108,107.673 137.458,108.11 137.85,108.198L138.373,108.241L138.373,108.46C136.277,110.12 133.35,111.388 130.727,110.034C129.547,109.421 129.243,107.979 129.373,106.757L131.557,94.653C131.426,94.347 131.164,94.042 130.903,93.998C130.116,93.955 129.592,94.522 129.155,95.047L128.456,96.445L125.923,109.816L118.146,110.384L118.058,110.251L121.335,92.6L121.597,92.425L129.068,92.032L129.199,92.032C129.244,92.906 128.806,93.648 128.937,94.435C130.554,92.119 133.394,91.42 136.191,91.988C137.107,92.336 138.199,92.905 138.637,93.91ZM71.085,107.061C71.085,107.586 71.565,107.891 72.046,108.024C72.133,108.024 72.308,108.067 72.22,108.198C70.167,109.815 67.24,110.776 64.705,109.684C63.874,109.202 63.307,108.416 63.263,107.455L63.438,105.269L65.798,92.817C68.506,92.642 71.085,92.423 73.794,92.38L71.085,107.061ZM40.893,83.205C42.117,84.297 42.597,85.783 42.204,87.356C40.543,91.419 35.869,92.25 31.805,92.25C30.057,97.45 31.062,104.091 25.951,107.673C22.018,109.903 17.3,110.251 12.58,109.859C11.051,109.685 9.521,109.029 8.779,107.588C8.255,106.277 8.517,104.617 9.259,103.481C10.832,101.383 13.847,101.426 16.207,101.952C17.124,102.171 17.911,102.87 18.304,103.788C18.741,105.229 18.478,107.02 17.343,108.069C16.513,108.899 15.333,109.204 14.241,109.598C16.513,109.772 18.741,108.68 19.746,106.582C20.707,103 21.275,99.242 21.931,95.528C20.052,96.184 17.824,97.057 15.552,96.752C13.848,96.621 12.057,95.659 11.314,94.043C10.353,91.727 10.834,88.712 12.494,86.79C16.733,82.333 23.024,82.158 28.923,81.372C32.331,81.197 36.045,81.153 39.147,82.202L40.893,83.205ZM34.077,83.685C35.082,85.083 35.169,87.355 34.426,88.928C33.858,90.021 32.897,91.2 31.848,91.768L33.115,84.209L32.328,84.209L24.026,85.083L22.016,95.176C20.924,95.002 20.268,93.822 19.831,92.905C19.132,89.54 20.137,86.089 22.977,83.904C25.642,81.937 29.836,81.501 33.026,82.724L34.077,83.685Z" style="fill:rgb(37,101,174);"/>
            <path d="M50.462,94.303C51.292,96.532 50.855,99.198 49.282,100.944C46.967,103.217 43.296,103.348 40.15,102.868C39.932,103.087 40.063,103.653 40.237,104.003C41.941,106.232 45.262,105.228 47.709,104.833L48.102,104.659C47.709,106.45 46.922,108.46 45.043,109.378C42.64,110.384 39.712,110.077 37.135,109.685C35.387,109.247 33.465,108.068 32.984,106.189C32.197,103.261 32.721,100.072 33.77,97.451C34.688,94.523 37.703,92.163 40.717,91.639C44.039,91.2 48.714,90.632 50.462,94.303ZM44.258,92.555L44.258,93.734C43.646,96.312 43.602,99.064 42.336,101.423C41.724,101.991 40.938,102.341 40.151,102.167L41.812,93.34C42.03,92.641 42.467,91.942 43.254,91.899C43.777,91.769 44.083,92.118 44.258,92.555ZM86.946,85.389C86.465,88.011 85.985,90.588 85.592,93.21L85.635,93.297C87.558,91.375 90.311,90.937 92.932,91.418C93.762,91.636 94.636,92.161 95.073,92.991C96.078,95.22 95.51,98.06 93.893,99.808C92.976,100.593 92.058,101.206 90.922,101.337C91.708,103.478 92.976,105.487 94.025,107.628C94.331,108.066 94.986,108.023 95.379,108.196C93.641,110.025 91.086,110.85 88.606,110.382C85.635,109.027 85.373,105.487 83.8,103.085L83.713,102.997L82.358,109.464C79.736,109.769 77.071,109.902 74.406,110.118L75.105,105.618L78.819,86.131C81.528,85.783 84.237,85.564 86.946,85.389ZM87.864,94.128C87.821,96.182 87.34,98.149 86.859,100.07C86.64,100.988 85.81,101.818 84.893,101.949L84.019,101.949C84.281,99.459 84.849,97.011 85.373,94.565C85.635,93.997 86.072,93.516 86.771,93.429C87.258,93.346 87.735,93.651 87.864,94.128ZM117.488,91.9C116.701,97.055 115.609,102.168 114.691,107.367C114.736,107.76 115.041,108.197 115.478,108.197L116.001,108.197C115.435,108.984 114.472,109.42 113.642,109.857C112.158,110.599 109.972,110.863 108.443,110.033C107.656,109.638 107.263,108.808 107.002,108.023C106.084,109.027 105.035,109.988 103.637,110.294C101.803,110.644 99.748,110.468 98.35,109.288C95.423,106.36 97.477,101.991 98,98.628C98.568,95.919 101.277,93.34 104.074,92.904C108.355,92.118 113.076,92.162 117.488,91.9ZM109.449,93.953L106.826,107.367C106.433,107.978 105.779,108.416 105.035,108.24C104.642,108.24 104.25,107.89 104.117,107.498L104.074,106.23L105.91,96.224C106.26,95.132 106.39,93.822 107.57,93.166C108.138,92.817 108.924,92.817 109.535,92.817L109.449,93.953ZM177.916,105.662C177.916,106.58 177,107.017 176.562,107.629C172.324,111.256 165.638,111.998 160.789,109.42C159.084,108.678 157.119,107.455 156.201,105.662L156.681,105.488L177.916,105.662ZM158.779,100.682C158.517,102.037 156.812,103.26 157.904,104.746C157.424,105.226 156.812,104.92 156.375,104.746C155.895,104.308 155.59,103.828 155.764,103.086C156.506,102.342 157.424,100.377 158.779,100.682ZM160.789,100.812C160.482,102.037 159.391,103.566 160.482,104.615C160.308,104.92 159.697,104.92 159.39,104.92C158.648,104.92 158.341,104.133 158.21,103.697C158.517,102.472 159.259,101.119 160.481,100.508L160.789,100.812ZM164.547,85.302C163.803,88.623 162.754,91.944 161.838,95.264C161.662,92.686 161.662,89.977 161.969,87.399C162.143,86.219 163.367,84.996 164.547,85.302ZM168.828,83.03C170.795,84.384 171.406,86.788 170.795,89.059C170.488,91.157 168.348,92.686 168.348,94.783C167.737,95.263 166.862,95.089 166.381,95.7L166.688,96.006C168.348,95.569 170.051,94.782 171.407,93.734C171.538,92.555 171.407,91.156 172.63,90.719C173.548,90.413 174.423,91.025 174.728,91.943C175.82,95.395 175.208,99.459 177.001,102.779C177.001,103.259 176.257,103.086 176.126,103.086C174.597,102.168 174.292,100.244 173.985,98.584L173.678,96.007L173.373,95.832C172.762,97.055 173.373,98.584 173.547,99.939L174.596,102.953C173.985,103.26 173.067,103.086 172.762,102.342C171.713,100.682 171.713,98.717 171.233,96.924L170.795,97.231C170.926,99.153 171.406,101.12 172.324,102.78C172.017,103.087 171.406,103.087 171.099,102.954C169.745,101.425 169.57,99.46 168.958,97.669L168.653,97.669C168.653,99.634 169.264,101.294 170.182,102.78C170.182,103.26 169.438,103.087 168.957,102.954C167.473,101.731 167.473,99.765 166.859,98.104L166.554,98.28C166.378,100.245 167.296,102.038 168.652,103.567C170.355,103.829 172.015,103.567 173.806,103.698C174.113,104.003 174.593,104.44 174.419,104.921L165.024,104.921C163.364,103.829 161.659,102.038 161.09,100.071C160.916,98.891 160.916,97.493 161.528,96.444L161.835,96.313C163.8,93.298 166.685,90.895 167.603,87.269C167.603,86.22 166.685,84.997 165.636,84.691C164.544,84.385 163.189,84.56 162.271,85.434L161.398,86.788L160.787,97.362C160,92.992 160.176,88.011 159.695,83.642C161.222,83.161 162.578,81.981 164.281,81.807C165.945,81.806 167.605,81.981 168.828,83.03ZM149.908,96.4C149.908,86.962 157.599,79.316 167.08,79.316C176.562,79.316 184.252,86.962 184.252,96.4C184.252,105.795 176.563,113.441 167.08,113.441C157.6,113.441 149.908,105.795 149.908,96.4Z" style="fill:rgb(37,101,174);"/>
        </g>
    </g>
</svg>
