<?xml version="1.0" encoding="UTF-8" standalone="no"?>
<!DOCTYPE svg PUBLIC "-//W3C//DTD SVG 1.1//EN" "http://www.w3.org/Graphics/SVG/1.1/DTD/svg11.dtd">
<svg width="100%" height="100%" viewBox="0 0 86 182" version="1.1" xmlns="http://www.w3.org/2000/svg" xmlns:xlink="http://www.w3.org/1999/xlink" xml:space="preserve" xmlns:serif="http://www.serif.com/" style="fill-rule:evenodd;clip-rule:evenodd;stroke-linejoin:round;stroke-miterlimit:2;">
    <g transform="matrix(1,0,0,1,-58.720592,-3.395285)">
        <g id="Fondo" transform="matrix(1,0,0,1,53,-5)">
            <path d="M69.237,28.685C70.2,31.164 70.694,31.071 70.104,32.432C62.962,48.911 63.475,51.044 76.278,63.634C77.7,67.553 78.364,67.331 77.764,71.521C77.086,76.257 73.763,78.54 80.328,80.562C80.441,84.239 80.564,84.086 79.588,87.543C79.411,87.308 78.226,85.73 77.487,84.522C75.412,84.804 75.427,85.459 76.544,87.058L78.803,88.658C73.967,99.94 89.779,108.794 59.878,130.996C56.497,133.506 76.567,135.525 71.765,140.684C71.185,141.306 66.31,146.544 62.44,145.778C45.349,142.392 45.248,151.834 38.586,151.008C21.269,148.859 28.048,138.807 28.787,137.712C33.907,134.296 33.268,133.779 33.335,133.666C20.081,129.326 16.031,127.552 6.559,118.441C0.31,112.43 31.069,117.069 30.631,57.499C30.511,41.119 17.976,19.756 34.688,10.826C53.789,0.619 67.076,25.671 69.237,28.685ZM54.469,40.627C52.499,43.277 52.62,43.217 49.656,44.609C47.838,45.462 50.637,45.649 50.539,47.528C50.081,56.345 55.549,55.694 53.751,64.454C55.06,72.855 60.662,85.937 65.823,102.383L66.169,102.631C68.106,103.405 68.374,103.562 67.621,105.499C66.918,110.185 68.06,110.303 65.788,114.5L64.754,116.84L62.5,116.164C54.336,117.97 54.905,119.305 46.754,120.789L45.19,122.147C45.265,123.952 45.155,124.183 43.408,124.341C39.511,127.935 37.463,124.54 34.3,128.893C69.091,136.593 80.925,106.963 69.166,73.614C63.102,56.414 60.418,56.54 63.719,38.5C64.978,31.616 60.477,41.852 60.314,42.222C59.737,43.535 54.893,40.861 54.469,40.627Z" style="fill:rgb(37,34,35);"/>
            <path d="M47.989,54.484C48.607,55.167 50.916,57.723 53.751,64.454C55.06,72.855 60.662,85.937 65.823,102.383C61.998,107.462 65.006,108.657 61.778,113.988C56.16,115.195 56.146,114.452 50.824,116.976C48.979,116.812 49.053,116.621 47.445,117.44C46.475,119.004 46.87,118.97 46.754,120.789L45.19,122.147C42.928,121.659 42.348,122.405 43.408,124.341C39.511,127.935 37.463,124.54 34.3,128.893C27.988,126.075 24.568,130.244 23.382,123.536C22.459,118.31 30.115,126.441 44.378,112.381C53.57,103.32 24.791,89.602 35.504,91.788C43.182,93.355 51.57,117.121 57.309,109.303C67.314,95.672 52.086,86.644 51.661,86.317C46.467,82.319 44.672,75.111 48.079,78.911C69.711,103.034 42.09,66.868 47.989,54.484Z" style="fill:rgb(134,131,132);"/>
            <path d="M42.199,38.304C41.672,34.947 38.386,27.029 40.865,23.769C45.526,17.638 47.364,20.775 51.927,27.155C55.059,31.533 60.235,33.05 60.555,33.466C62.238,35.651 52.551,37.744 52.478,37.745C50.853,37.752 51.724,37.038 52.075,35.475C52.397,34.037 43.324,37.17 46.545,40.872C50.562,40.575 50.372,40.21 54.469,40.627C52.499,43.277 52.62,43.217 49.656,44.609C47.838,45.462 50.637,45.649 50.539,47.528C50.081,56.345 55.549,55.694 53.751,64.454C50.916,57.723 48.607,55.167 47.989,54.484C47.927,54.348 47.204,52.781 47.204,52.781C39.585,47.395 40.951,44.659 42.199,38.304Z" style="fill:white;"/>
            <path d="M35.647,135.747C41.498,131.981 44.019,136.104 46.132,137.862C48.074,139.11 56.875,143.114 47.476,144.667C47.371,144.685 40.641,133.617 41.88,140.424C42.379,143.166 45.827,146.027 39.425,148.064C39.423,148.064 28.617,146.091 28.872,142.521C28.927,141.757 29.002,140.71 35.647,135.747Z" style="fill:white;"/>
            <path d="M76.871,169.562C77.328,164.963 77.804,165.242 78.233,160.491C78.546,157.034 88.256,158.295 88.128,159.597C87.312,167.913 93.247,171.811 85.392,172.957C81.464,173.515 81.642,173.136 77.71,172.056L76.871,169.562Z" style="fill:rgb(42,40,41);"/>
            <path d="M15.346,158.861C15.501,159.637 17.144,167.887 12.497,168.336C9.544,168.621 11.621,170.424 10.315,172.243C6.326,177.8 6.563,163.223 6.377,162.539C4.572,155.903 8.684,157.614 15.346,158.861Z" style="fill:rgb(44,44,44);"/>
            <path d="M56.784,158.344C56.819,158.989 56.376,158.817 56.415,159.532C56.458,160.332 56.469,160.272 57.155,169.518L56.256,172.014C52.028,173.594 51.975,173.387 47.65,172.094C47.632,171.248 46.465,171.412 47.767,164.709C50.886,135.831 50.501,170.209 50.697,170.396C56.387,175.796 52.86,143.19 56.784,158.344Z" style="fill:rgb(55,52,53);"/>
            <path d="M50.948,137.281C51.607,135.078 53.334,128.452 63.836,139.065C64.908,140.148 67.705,134.95 68.505,138.499C69.897,144.675 48.202,141.924 59.905,140.75C62.905,140.449 51.905,132.88 53.829,137.511C55.948,142.612 51.106,137.449 50.948,137.281Z" style="fill:white;"/>
            <path d="M42.159,27.353C43.855,22.354 46.028,23.42 49.41,27.509C51.722,30.664 53.655,31.11 51.406,32.396C48.399,34.115 48.54,34.048 45.638,35.72C43.497,32.21 43.62,32.397 42.348,28.53L42.159,27.353Z" style="fill:rgb(37,32,33);"/>
            <path d="M37.549,158.646C38.288,158.58 48.967,157.621 46.424,161.336C45.973,161.995 45.805,161.548 44.18,160.975C41.526,160.038 41.674,161.077 40.188,163.433C39.264,166.859 39.412,166.801 39.912,170.266C39.773,171.183 39.633,172.099 39.494,173.016C38.518,172.785 37.542,172.553 36.565,172.322C36.266,171.391 35.967,170.46 35.668,169.529C35.848,168.664 37.149,162.413 37.549,158.646Z" style="fill:rgb(41,39,39);"/>
            <path d="M66.528,158.64C68.289,159.353 68.069,159.37 69.357,160.639C70.051,161.632 70.744,162.624 71.437,163.616C72.399,163.55 71.671,164.563 72.498,164.505C72.656,164.494 72.498,164.505 72.565,162.516L72.619,161.448C73.906,161.589 73.727,161.653 75.112,161.399C73.709,167.264 73.803,167.841 73.895,168.402C74.571,172.544 76.479,169.717 76.871,169.562L77.71,172.056C74.466,173.145 74.438,173.038 71.769,171.144C69.991,167.29 70.437,167.049 66.996,164.505C66.705,163.128 66.8,163.243 66.528,158.64Z" style="fill:rgb(47,47,47);"/>
            <path d="M61.778,113.988C63.912,113.755 63.705,113.781 65.788,114.5C65.443,115.28 65.099,116.06 64.754,116.84C64.003,116.615 63.251,116.389 62.5,116.164C54.336,117.97 54.905,119.305 46.754,120.789C46.87,118.97 46.475,119.004 47.445,117.44C47.978,117.492 48.145,119.739 50.705,117.76C50.914,117.598 50.614,117.137 50.824,116.976C56.146,114.452 56.16,115.195 61.778,113.988Z" style="fill:white;"/>
            <path d="M59.529,158.616C60.03,158.722 62.034,157.231 62.959,160.554C62.679,162.337 62.22,162.542 62.774,168.409C63.35,174.512 60.311,172.56 56.256,172.014L57.155,169.518C64.215,172.47 58.464,166.079 59.529,158.616Z" style="fill:rgb(53,52,52);"/>
            <path d="M26.151,164.574C26.058,164.152 24.299,156.229 27.572,159.365C28.084,159.857 27.433,160.309 32.909,166.454C33.098,167.806 33.287,169.158 33.477,170.511C33.493,171.31 33.51,172.109 33.526,172.909C31.882,172.266 32.032,172.237 30.775,171.136C29.568,167.868 29.818,167.941 28.719,166.285C27.863,165.715 27.007,165.144 26.151,164.574Z" style="fill:rgb(32,31,31);"/>
            <path d="M18.56,158.678C24.291,158.729 20.908,161.875 21.978,169.348C22.093,170.149 23.561,173.623 19.435,172.82C17.798,172.502 19.247,169.439 18.56,158.678Z" style="fill:rgb(45,45,45);"/>
            <path d="M65.823,102.383L66.169,102.631C66.369,103.594 66.449,103.471 67.621,105.499C66.918,110.185 68.06,110.303 65.788,114.5C63.705,113.781 63.912,113.755 61.778,113.988C65.006,108.657 61.998,107.462 65.823,102.383Z" style="fill:white;"/>
            <path d="M37.549,158.646C37.149,162.413 35.848,168.664 35.668,169.529L33.477,170.511C33.287,169.158 33.098,167.806 32.909,166.454L33.774,163.558C33.782,162.076 33.79,160.594 33.798,159.113C37.275,158.691 37.252,158.586 37.549,158.646Z" style="fill:rgb(194,192,193);"/>
            <path d="M84.46,170.484C78.63,174.544 81.239,156.528 84.284,161.623C85.491,163.641 84.566,169.783 84.46,170.484Z" style="fill:rgb(196,195,196);"/>
            <path d="M56.784,158.344C57.699,158.435 58.614,158.525 59.529,158.616C58.464,166.079 64.215,172.47 57.155,169.518C56.469,160.272 56.458,160.332 56.415,159.532C56.376,158.817 56.819,158.989 56.784,158.344Z" style="fill:rgb(188,186,187);"/>
            <path d="M42.561,164.696C43.514,164.689 44.467,164.681 45.421,164.674C44.619,168.861 45.824,168.85 44.601,172.742C42.899,172.833 41.196,172.924 39.494,173.016C39.633,172.099 39.773,171.183 39.912,170.266C43.513,169.561 42.18,168.298 42.561,164.696Z" style="fill:rgb(44,41,42);"/>
            <path d="M35.419,140.406C37.78,139.073 38.601,137.18 39.197,139.611C39.47,140.727 38.68,143.244 38.584,143.549C37.833,145.942 28.381,144.106 35.419,140.406Z" style="fill:rgb(46,44,44);"/>
            <path d="M66.996,164.505C70.437,167.049 69.991,167.29 71.769,171.144C70.952,171.531 70.135,171.918 69.318,172.306C67.735,169.766 68.068,168.75 66.309,169.401C66.538,167.769 66.767,166.137 66.996,164.505Z" style="fill:rgb(125,125,125);"/>
            <path d="M45.421,164.674C46.203,164.686 46.985,164.697 47.767,164.709C46.465,171.412 47.632,171.248 47.65,172.094C46.634,172.31 45.618,172.526 44.601,172.742C45.824,168.85 44.619,168.861 45.421,164.674Z" style="fill:rgb(146,143,144);"/>
            <path d="M56.595,18.316C56.775,18.474 63.853,24.706 56.555,21.306C55.962,21.03 49.136,22.491 53.668,18.666C54.552,17.92 54.606,18.283 56.595,18.316Z" style="fill:white;"/>
            <path d="M26.151,164.574C27.007,165.144 27.863,165.715 28.719,166.285C27.811,167.795 26.911,167.676 28.397,172.358C22.741,173.825 24.669,170.255 26.151,164.574Z" style="fill:rgb(71,71,71);"/>
            <path d="M60.518,28.458C60.945,28.739 68.028,33.387 64.487,33.473C63.862,33.488 64.421,32.626 57.717,29.563C59.16,28.72 58.998,28.791 60.518,28.458Z" style="fill:white;"/>
            <path d="M40.188,163.433C40.979,163.854 41.77,164.275 42.561,164.696C42.18,168.298 43.513,169.561 39.912,170.266C39.412,166.801 39.264,166.859 40.188,163.433Z" style="fill:rgb(171,169,169);"/>
            <path d="M28.719,166.285C29.818,167.941 29.568,167.868 30.775,171.136C29.982,171.543 29.19,171.95 28.397,172.358C26.911,167.676 27.811,167.795 28.719,166.285Z" style="fill:rgb(133,132,132);"/>
            <path d="M30.642,158.731C32.415,158.552 32.3,158.457 33.798,159.113C33.79,160.594 33.782,162.076 33.774,163.558C32.002,161.607 32.173,161.774 30.673,159.579L30.642,158.731Z" style="fill:rgb(55,53,54);"/>
            <path d="M10.383,162.47C11.796,160.958 12.159,159.858 13.227,161.648C14.292,163.434 10.888,167.625 10.383,162.47Z" style="fill:rgb(236,236,236);"/>
            <path d="M71.565,158.616C71.916,159.56 72.267,160.504 72.619,161.448L72.565,162.516C72.189,162.883 71.813,163.25 71.437,163.616C70.744,162.624 70.051,161.632 69.357,160.639C70.093,159.965 70.829,159.29 71.565,158.616Z" style="fill:rgb(181,181,181);"/>
            <path d="M66.309,169.401C68.068,168.75 67.735,169.766 69.318,172.306C66.45,173.116 65.814,172.346 66.309,169.401Z" style="fill:rgb(42,42,42);"/>
            <path d="M71.565,158.616C73.707,158.7 75.064,157.756 75.112,161.399C73.727,161.653 73.906,161.589 72.619,161.448C72.267,160.504 71.916,159.56 71.565,158.616Z" style="fill:rgb(49,48,49);"/>
            <path d="M60.518,28.458C58.998,28.791 59.16,28.72 57.717,29.563C57.718,29.323 57.92,19.703 60.518,28.458Z" style="fill:white;"/>
            <path d="M35.668,169.529C35.967,170.46 36.266,171.391 36.565,172.322C34.97,172.953 35.117,172.936 33.526,172.909C33.51,172.109 33.493,171.31 33.477,170.511L35.668,169.529Z" style="fill:rgb(102,100,100);"/>
            <path d="M45.19,122.147C45.265,123.952 45.155,124.183 43.408,124.341C42.348,122.405 42.928,121.659 45.19,122.147Z" style="fill:white;"/>
            <path d="M77.487,84.522C78.226,85.73 79.411,87.308 79.588,87.543L78.803,88.658C78.05,88.125 77.297,87.592 76.544,87.058C77.483,85.806 77.456,85.993 77.487,84.522Z" style="fill:rgb(67,65,66);"/>
            <path d="M50.824,116.976C50.614,117.137 50.914,117.598 50.705,117.76C48.145,119.739 47.978,117.492 47.445,117.44C49.053,116.621 48.979,116.812 50.824,116.976Z" style="fill:rgb(157,155,156);"/>
            <path d="M46.972,136.53C47.03,136.299 48.184,131.685 49.317,134.704C49.374,134.856 49.317,134.704 48.518,136.575C48.002,136.56 47.487,136.545 46.972,136.53Z" style="fill:rgb(164,161,162);"/>
            <path d="M77.487,84.522C77.456,85.993 77.483,85.806 76.544,87.058C75.427,85.459 75.412,84.804 77.487,84.522Z" style="fill:white;"/>
            <path d="M56.819,38.587C58.231,37.832 58.104,37.813 58.231,37.832C59.43,38.016 57.795,41.013 56.819,38.587Z" style="fill:rgb(167,165,165);"/>
            <path d="M66.169,102.631C68.106,103.405 68.374,103.562 67.621,105.499C66.449,103.471 66.369,103.594 66.169,102.631Z" style="fill:white;"/>
            <path d="M47.564,29.519C49.495,29.513 49.402,29.39 49.495,29.513C49.606,29.66 48.465,34.542 47.564,29.519Z" style="fill:white;"/>
            <path d="M64.754,116.84C64.003,116.615 63.251,116.389 62.5,116.164C63.251,116.389 64.003,116.615 64.754,116.84Z" style="fill:rgb(212,210,211);"/>
            <g transform="matrix(1,0,0,1,-47,-5)">
                <text x="54px" y="192px" style="font-family:'Helvetica-Bold', 'Helvetica';font-weight:700;font-size:15px;">Papel</text>
                <text x="96.239px" y="192px" style="font-family:'Helvetica-Bold', 'Helvetica';font-weight:700;font-size:15px;">Crepe</text>
            </g>
            <path d="M72.565,162.516C72.498,164.505 72.656,164.494 72.498,164.505C71.671,164.563 72.399,163.55 71.437,163.616C71.813,163.25 72.189,162.883 72.565,162.516Z" style="fill:rgb(116,116,116);"/>
            <path d="M30.642,158.731L30.673,159.579C30.114,159.174 30.254,159.185 30.642,158.731Z" style="fill:rgb(150,148,148);"/>
        </g>
    </g>
</svg>
