<?xml version="1.0" encoding="UTF-8" standalone="no"?>
<!DOCTYPE svg PUBLIC "-//W3C//DTD SVG 1.1//EN" "http://www.w3.org/Graphics/SVG/1.1/DTD/svg11.dtd">
<svg width="100%" height="100%" viewBox="0 0 1601 540" version="1.1" xmlns="http://www.w3.org/2000/svg" xmlns:xlink="http://www.w3.org/1999/xlink" xml:space="preserve" xmlns:serif="http://www.serif.com/" style="fill-rule:evenodd;clip-rule:evenodd;stroke-linecap:round;stroke-linejoin:round;stroke-miterlimit:1.5;">
    <g transform="matrix(1,0,0,1,-235,-775)">
        <g id="Soluciones-escolares" serif:id="Soluciones escolares" transform="matrix(0.865185,0,0,0.865185,295.745231,192.816916)">
            <g transform="matrix(0.906721,0,0,1.65995,9.11398,-778.570505)">
                <path d="M1265,1173.109L1265,1193.891C1265,1202.23 1252.606,1209 1237.339,1209L382.661,1209C367.394,1209 355,1202.23 355,1193.891L355,1173.109C355,1164.77 367.394,1158 382.661,1158L1237.339,1158C1252.606,1158 1265,1164.77 1265,1173.109Z" style="fill:rgb(38,47,107);stroke:black;stroke-opacity:0;stroke-width:21.6px;"/>
            </g>
            <g transform="matrix(1,0,0,1,-141.824728,-181.172953)">
                <g transform="matrix(1.25,0,0,1.2,-124.911184,-277.613158)">
                    <g transform="matrix(52.785458,0,0,52.785458,1120.256358,1388.065789)">
                    </g>
                    <text x="499.645px" y="1388.066px" style="font-family:'ArialRoundedMTBold', 'Arial Rounded MT Bold', sans-serif;font-size:52.785px;fill:white;">S<tspan x="538.547px 574.125px 592.124px 627.702px 662.764px 680.764px 716.341px 751.919px 786.981px 819.285px 836.177px 875.079px 907.384px 942.446px 978.023px 996.023px 1031.085px 1056.585px 1091.647px " y="1388.066px 1388.066px 1388.066px 1388.066px 1388.066px 1388.066px 1388.066px 1388.066px 1388.066px 1388.066px 1388.066px 1388.066px 1388.066px 1388.066px 1388.066px 1388.066px 1388.066px 1388.066px 1388.066px ">oluciones Escolares</tspan></text>
                </g>
            </g>
        </g>
        <path d="M404.009,1133.184C404.556,1135.269 405.928,1137.201 407.599,1139.209C410.072,1142.181 414.805,1141.361 420.599,1141.361C422.86,1141.361 425.408,1140.671 428.329,1139.727C431.238,1138.788 433.926,1137.222 436.46,1135.155C438.837,1133.215 440.591,1130.404 442.176,1127.054C444.229,1122.712 444.842,1117.269 444.842,1110.872C444.842,1096.636 442.83,1082.906 438.769,1069.687C433.985,1054.118 428.802,1038.649 423.221,1023.279C417.296,1006.964 411.794,990.542 406.716,974.015C400.915,955.137 397.996,935.536 397.996,915.207C397.996,895.912 401.728,878.25 408.953,862.172C416.085,846.302 425.633,832.574 437.519,820.936C449.48,809.226 462.921,800.205 477.805,793.818C493.117,787.246 508.981,783.979 525.387,783.979C545.922,783.979 563.643,787.416 578.649,793.743C594.282,800.334 607.379,809.224 618.075,820.209C629.07,831.501 637.217,844.364 642.574,858.761C647.761,872.705 650.313,886.793 650.313,901.01L650.312,901.427C662.393,897.699 675.535,895.771 689.771,895.771C704.027,895.771 716.214,898.681 726.479,903.813C734.201,907.674 740.872,912.442 746.547,918.044C747.092,914.657 747.624,911.282 748.143,907.92C751.15,888.454 752.469,871.544 751.927,857.186C751.099,849.023 752.57,841.425 756.105,834.354C761.915,822.734 771.01,816.445 782.512,814.451C792.136,812.675 801.461,812.756 810.488,814.562C820.396,816.543 829.302,820.534 837.229,826.479C845.129,832.404 851.687,840.188 856.624,850.063C861.207,859.227 863.854,870.149 863.854,882.979C863.854,885.392 863.491,889.665 862.581,895.773L863.104,895.771C893.087,895.771 912.887,906.069 924.581,921.36C935.161,935.196 940.891,951.435 941.29,970.234C945.458,961.851 950.094,954.12 955.175,947.028C966.203,931.635 978.504,919.699 991.83,910.969C1007.821,900.492 1023.706,895.771 1039.146,895.771C1058.104,895.771 1075.608,902.193 1091.406,915.693C1099.37,922.499 1105.826,930.795 1110.518,940.698C1120.29,928.32 1130.974,918.463 1142.413,910.969C1158.405,900.492 1174.289,895.771 1189.729,895.771C1208.687,895.771 1226.191,902.193 1241.99,915.693C1244.146,917.536 1246.192,919.488 1248.122,921.552C1248.59,918.821 1249.049,916.082 1249.499,913.334C1252.681,893.929 1253.87,875.463 1252.991,857.946C1252.05,849.12 1253.809,841.246 1257.642,834.218C1262.476,825.356 1269.7,819.283 1279.367,816.06C1280.662,815.629 1281.984,815.286 1283.326,815.035C1293.03,813.215 1302.431,813.284 1311.529,815.103C1321.438,817.085 1330.344,821.076 1338.271,827.021C1345.982,832.804 1352.297,840.312 1356.978,849.736C1359.305,846.127 1362.07,842.796 1365.245,839.73C1375.908,829.436 1389.483,823.729 1406.396,823.729C1423.599,823.729 1437.179,829.628 1447.651,840.099C1458.122,850.571 1464.021,864.151 1464.021,881.354C1464.021,882.949 1463.97,884.513 1463.87,886.046C1465.002,881.727 1466.222,877.341 1467.532,872.889C1471.944,857.887 1478.047,844.225 1485.768,831.871C1494.32,818.188 1504.989,806.985 1517.695,798.188C1531.746,788.46 1548.9,783.104 1569.438,783.104C1583.262,783.104 1594.997,785.161 1604.725,788.746C1615.213,792.609 1623.813,797.608 1630.712,803.404C1638.872,810.258 1644.76,818.046 1648.676,826.532C1652.772,835.407 1654.688,844.313 1654.688,853.188C1654.688,865.896 1650.85,877.513 1643,887.979C1639.381,892.805 1635.14,896.881 1630.228,900.115C1635.236,902.261 1639.929,904.983 1644.313,908.271C1650.099,912.611 1655.166,917.948 1659.403,924.374C1664.427,916.58 1670.415,910.733 1676.945,906.52C1687.694,899.585 1699.023,896.313 1710.813,896.313C1723.085,896.313 1735.104,899.483 1746.729,906.17C1761.221,914.308 1766.184,925.662 1766.995,936.199C1767.81,946.789 1764.784,956.707 1756.193,965.167C1755.699,966.748 1754.806,969.738 1754.349,972.096C1752.306,982.653 1750.448,995.425 1748.746,1010.408C1746.951,1026.201 1745.067,1043.699 1743.093,1062.901C1741.047,1082.805 1738.35,1102.987 1735.002,1123.449C1732.497,1138.759 1729.48,1153.662 1725.956,1168.157C1727.062,1168.265 1728.145,1168.422 1729.204,1168.627C1731.52,1168.242 1733.918,1168.043 1736.402,1168.043C1739.805,1168.043 1742.982,1168.411 1745.946,1169.084C1748.952,1168.399 1752.096,1168.043 1755.384,1168.043C1759.257,1168.043 1762.845,1168.505 1766.169,1169.343C1769.196,1168.46 1772.489,1167.982 1776.075,1167.982C1779.683,1167.982 1783.009,1168.48 1786.078,1169.404C1789.147,1168.479 1792.468,1167.982 1796.064,1167.982C1805.1,1167.982 1812.405,1171.054 1818.345,1176.158C1826.328,1183.016 1829.878,1191.487 1829.878,1201.156C1829.878,1205.627 1829.04,1209.956 1827.305,1214.128C1830.171,1220.2 1830.702,1225.283 1830.702,1228.652C1830.702,1238.239 1827.206,1246.732 1819.179,1253.644C1813.13,1258.853 1805.794,1261.857 1796.888,1261.857C1793.005,1261.857 1789.42,1261.275 1786.109,1260.18C1782.831,1261.265 1779.243,1261.857 1775.312,1261.857C1772.972,1261.857 1770.731,1261.648 1768.583,1261.24C1766.404,1261.647 1764.111,1261.857 1761.701,1261.857C1758.237,1261.857 1754.996,1261.42 1751.97,1260.568C1748.952,1261.415 1745.7,1261.857 1742.2,1261.857C1738.71,1261.857 1735.457,1261.415 1732.428,1260.559C1729.4,1261.414 1726.141,1261.857 1722.638,1261.857C1719.464,1261.857 1716.476,1261.49 1713.67,1260.772C1710.847,1261.496 1707.885,1261.857 1704.786,1261.857C1698.529,1261.857 1692.891,1260.396 1687.843,1257.55C1679.861,1268.051 1670.806,1276.927 1660.749,1284.241C1643.889,1296.503 1623.814,1302.979 1600.313,1302.979C1583.856,1302.979 1569.567,1300.102 1557.349,1294.866C1544.603,1289.403 1534.015,1282.134 1525.431,1273.29C1517.791,1265.419 1511.664,1256.438 1507.077,1246.328C1496.969,1264.261 1484.994,1278.527 1471.449,1289.364C1454.387,1303.013 1434.37,1310.021 1411.271,1310.021C1393.117,1310.021 1377.642,1307.1 1364.744,1301.845C1350.77,1296.152 1339.509,1288.586 1330.711,1279.529C1321.344,1269.886 1314.63,1258.843 1310.498,1246.445C1306.747,1235.194 1304.896,1223.814 1304.896,1212.313C1304.896,1201.459 1306.394,1190.978 1309.354,1180.865C1310.292,1177.658 1311.364,1174.559 1312.565,1171.565C1305.436,1173.587 1298.075,1174.604 1290.479,1174.604C1277.087,1174.604 1265.529,1171.412 1255.644,1165.673C1245.886,1160.007 1238.054,1152.57 1232.073,1143.441C1230.82,1141.528 1229.64,1139.547 1228.536,1137.497C1224.087,1142.957 1219.309,1147.935 1214.218,1152.442C1197.477,1167.262 1178.102,1174.604 1156.146,1174.604C1143.704,1174.604 1132.007,1171.774 1121.046,1166.145C1110.451,1160.705 1101.012,1152.698 1092.994,1141.817C1090.013,1137.771 1087.264,1133.289 1084.782,1128.356C1078.506,1137.519 1071.439,1145.534 1063.635,1152.442C1046.894,1167.262 1027.519,1174.604 1005.563,1174.604C993.121,1174.604 981.423,1171.774 970.463,1166.145C960.735,1161.15 951.98,1153.99 944.407,1144.429C943.631,1145.464 942.847,1146.463 942.054,1147.425C933.354,1157.989 923.624,1164.957 913.371,1168.996C903.906,1172.724 894.013,1174.604 883.688,1174.604C869.576,1174.604 857.832,1171.227 848.211,1165.454C842.485,1162.018 837.451,1158.069 833.076,1153.643C832.207,1154.577 831.313,1155.479 830.398,1156.347C817.687,1168.406 802.272,1174.604 784.021,1174.604C760.213,1174.604 743.349,1165.653 732.125,1150.688C731.419,1149.747 730.737,1148.789 730.077,1147.815C709.339,1166.028 686.728,1174.604 662.688,1174.604C644.068,1174.604 627.774,1170.687 613.684,1163.39C601.901,1157.288 591.701,1149.339 583.08,1139.549C582.608,1160.199 578.469,1179.959 570.693,1198.836C562.433,1218.889 551.01,1236.413 536.492,1251.452C521.919,1266.548 504.258,1278.703 483.403,1287.761C462.69,1296.757 440.125,1301.354 415.668,1301.354C386.381,1301.354 361.298,1296.53 340.309,1287.487C318.505,1278.094 300.458,1265.411 286.007,1249.671C271.456,1233.822 260.756,1215.915 253.864,1195.976C247.228,1176.781 243.896,1156.85 243.896,1136.179C243.896,1115.596 246.969,1097.884 252.622,1082.962C258.682,1066.963 266.842,1053.826 276.759,1043.344C287.29,1032.213 299.198,1024.102 312.361,1018.83C325.36,1013.623 338.236,1011.124 350.946,1011.124C373.256,1011.124 392.991,1018.1 410.176,1031.987C428.624,1046.894 438.887,1068.156 438.887,1096.675C438.887,1098.2 438.771,1099.723 438.539,1101.231C436.513,1114.42 429.827,1122.588 421.721,1127.661C416.96,1130.64 411.102,1132.858 404.009,1133.184ZM1038.119,1032.781C1038.671,1031.049 1039.171,1029.242 1039.626,1027.363C1039.345,1027.14 1039.066,1026.913 1038.789,1026.682C1038.51,1028.676 1038.287,1030.709 1038.119,1032.781ZM1188.703,1032.781C1189.254,1031.049 1189.754,1029.242 1190.209,1027.363C1189.929,1027.14 1189.65,1026.913 1189.373,1026.682C1189.093,1028.676 1188.871,1030.709 1188.703,1032.781ZM553.114,1025.22C554.413,1016.09 556.47,1006.901 559.3,997.656C552.263,997.533 545.543,996.705 539.134,995.208C541.079,999.41 543.058,1003.623 545.071,1007.847C547.812,1013.598 550.493,1019.389 553.114,1025.22ZM1698.535,1251.965C1698.127,1251.554 1697.726,1251.131 1697.331,1250.697C1696.446,1249.722 1695.595,1248.681 1694.792,1247.569C1694.273,1248.384 1693.748,1249.19 1693.217,1249.989C1694.9,1250.858 1696.673,1251.517 1698.535,1251.965ZM1554.697,929.471L1554.658,929.491C1554.97,929.559 1555.28,929.631 1555.589,929.708C1555.322,929.642 1555.027,929.546 1554.697,929.471ZM671.708,1031.271C671.925,1033.967 672.39,1036.589 673.117,1039.133C673.758,1041.377 674.659,1043.379 676.005,1045.046C677.16,1046.476 678.676,1047.558 680.437,1048.438C682.526,1049.482 685.143,1049.604 688.146,1049.604C691.662,1049.604 695.38,1048.804 699.351,1047.458C691.372,1045.59 684.066,1041.956 677.421,1036.588C675.406,1034.961 673.498,1033.19 671.708,1031.271ZM1798.306,1215.537C1797.659,1214.371 1796.905,1213.233 1796.034,1212.128L1796.034,1218.574C1796.883,1217.592 1797.639,1216.579 1798.306,1215.537Z" style="fill:rgb(255,230,0);"/>
        <path d="M526.62,909.034C530.729,911.503 535.249,912.738 540.181,912.738C546.755,912.738 552.509,910.577 557.44,906.257C562.371,901.936 564.837,895.043 564.837,885.579C564.837,875.292 561.446,867.062 554.666,860.889C547.886,854.717 539.359,851.631 529.085,851.631C517.168,851.631 506.484,856.98 497.033,867.679C487.581,878.378 482.855,893.603 482.855,913.355C482.855,931.461 486.554,949.361 493.951,967.055C501.347,984.749 509.361,1002.649 517.99,1020.755C526.62,1038.86 534.633,1057.378 542.03,1076.306C549.427,1095.235 553.125,1114.987 553.125,1135.561C553.125,1153.667 549.735,1170.95 542.954,1187.409C536.174,1203.869 526.825,1218.272 514.908,1230.616C502.991,1242.961 488.506,1252.837 471.452,1260.244C454.398,1267.651 435.804,1271.354 415.668,1271.354C391.012,1271.354 369.849,1267.548 352.179,1259.935C334.508,1252.323 319.818,1242.138 308.106,1229.382C296.394,1216.626 287.765,1202.223 282.217,1186.175C276.67,1170.127 273.896,1153.461 273.896,1136.179C273.896,1119.719 276.156,1105.522 280.676,1093.589C285.196,1081.656 291.155,1071.78 298.552,1063.961C305.949,1056.143 314.27,1050.382 323.516,1046.679C332.762,1042.975 341.905,1041.124 350.946,1041.124C366.15,1041.124 379.608,1045.856 391.32,1055.32C403.032,1064.784 408.887,1078.569 408.887,1096.675C408.066,1102.025 404.778,1104.082 399.025,1102.848C391.628,1101.613 385.567,1103.979 380.841,1109.946C376.115,1115.913 373.753,1123.011 373.753,1131.241C373.753,1140.705 377.348,1149.758 384.54,1158.399C391.731,1167.041 403.751,1171.361 420.599,1171.361C425.53,1171.361 431.181,1170.333 437.55,1168.275C443.919,1166.218 449.878,1162.926 455.426,1158.399C460.973,1153.873 465.596,1147.7 469.295,1139.882C472.993,1132.064 474.842,1122.394 474.842,1110.872C474.842,1093.589 472.377,1076.923 467.445,1060.875C462.514,1044.827 457.172,1028.882 451.419,1013.039C445.666,997.197 440.324,981.251 435.393,965.203C430.461,949.155 427.996,932.489 427.996,915.207C427.996,900.393 430.77,886.814 436.317,874.469C441.865,862.124 449.262,851.425 458.508,842.372C467.754,833.319 478.13,826.324 489.636,821.386C501.142,816.448 513.059,813.979 525.387,813.979C541.413,813.979 555.282,816.448 566.994,821.386C578.706,826.324 588.568,832.908 596.581,841.138C604.594,849.368 610.553,858.729 614.457,869.222C618.361,879.715 620.313,890.311 620.313,901.01C620.313,912.943 618.566,923.025 615.073,931.255C611.58,939.485 606.957,946.377 601.204,951.932C595.451,957.488 589.082,961.5 582.096,963.969C575.11,966.438 568.124,967.672 561.138,967.672C552.919,967.672 545.317,966.335 538.331,963.66C531.345,960.985 525.592,957.179 521.072,952.241C516.552,947.303 513.573,941.542 512.134,934.958C510.696,928.374 511.21,920.967 513.675,912.738C515.319,906.977 519.634,905.742 526.62,909.034ZM690.313,990.229C697.535,988.424 702.771,984.722 706.021,979.125C709.271,973.528 710.896,968.021 710.896,962.604C710.896,957.188 709.271,953.035 706.021,950.146C702.771,947.257 698.799,945.813 694.104,945.813C685.799,945.813 678.486,948.34 672.167,953.396C665.847,958.451 660.34,964.951 655.646,972.896C650.951,980.84 647.431,989.688 645.083,999.438C642.736,1009.188 641.563,1018.576 641.563,1027.604C641.563,1034.465 642.465,1041.056 644.271,1047.375C646.076,1053.694 648.875,1059.201 652.667,1063.896C656.458,1068.59 661.243,1072.382 667.021,1075.271C672.799,1078.16 679.84,1079.604 688.146,1079.604C695.368,1079.604 703.132,1078.069 711.438,1075C719.743,1071.931 725.882,1065.16 729.854,1054.688C731.299,1050.715 733.917,1049 737.708,1049.542C741.5,1050.083 743.035,1052.701 742.313,1057.396C737.257,1087.729 727.146,1109.847 711.979,1123.75C696.813,1137.653 680.382,1144.604 662.688,1144.604C649.326,1144.604 637.59,1141.986 627.479,1136.75C617.368,1131.514 608.882,1124.382 602.021,1115.354C595.16,1106.326 590.014,1096.125 586.583,1084.75C583.153,1073.375 581.438,1061.368 581.438,1048.729C581.438,1034.285 583.785,1019.66 588.479,1004.854C593.174,990.049 600.125,976.868 609.333,965.313C618.542,953.757 629.826,944.278 643.188,936.875C656.549,929.472 672.076,925.771 689.771,925.771C698.799,925.771 706.563,927.396 713.063,930.646C719.563,933.896 724.889,938.139 729.042,943.375C733.194,948.611 736.264,954.389 738.25,960.708C740.236,967.028 741.229,973.076 741.229,978.854C741.229,990.41 739.063,999.979 734.729,1007.563C730.396,1015.146 722.993,1018.938 712.521,1018.938C706.382,1018.938 700.965,1017.042 696.271,1013.25C691.576,1009.458 688.326,1003.951 686.521,996.729C685.799,993.479 687.063,991.313 690.313,990.229ZM821.938,1103.979C820.854,1117.701 816.792,1127.903 809.75,1134.583C802.708,1141.264 794.132,1144.604 784.021,1144.604C771.382,1144.604 762.083,1140.632 756.125,1132.688C750.167,1124.743 747.188,1114.813 747.188,1102.896C747.188,1088.09 749.174,1069.854 753.146,1048.188C757.118,1026.521 761.361,1004.042 765.875,980.75C770.389,957.458 774.361,934.708 777.792,912.5C781.222,890.292 782.576,871.063 781.854,854.813C781.493,852.285 781.854,849.938 782.938,847.771C784.021,845.604 785.646,844.34 787.813,843.979C793.59,842.896 799.188,842.896 804.604,843.979C810.021,845.063 814.896,847.229 819.229,850.479C823.563,853.729 827.083,858.063 829.792,863.479C832.5,868.896 833.854,875.396 833.854,882.979C833.854,885.507 833.132,890.743 831.688,898.688C830.243,906.632 828.618,916.201 826.813,927.396C825.729,936.063 828.979,938.049 836.563,933.354C841.257,930.465 845.861,928.479 850.375,927.396C854.889,926.313 859.132,925.771 863.104,925.771C881.16,925.771 893.708,930.375 900.75,939.583C907.792,948.792 911.313,959.715 911.313,972.354C911.313,981.382 910.59,990.59 909.146,999.979C907.701,1009.368 906.257,1018.486 904.813,1027.333C903.368,1036.181 902.285,1044.396 901.563,1051.979C900.84,1059.563 901.021,1066.243 902.104,1072.021C902.826,1073.826 903.819,1075.542 905.083,1077.167C906.347,1078.792 908.785,1079.604 912.396,1079.604C915.646,1079.604 918.354,1078.611 920.521,1076.625C922.688,1074.639 924.313,1072.472 925.396,1070.125C926.479,1067.778 927.201,1065.521 927.563,1063.354L928.104,1060.104C928.465,1057.938 929.458,1056.403 931.083,1055.5C932.708,1054.597 934.333,1054.326 935.958,1054.688C937.583,1055.049 938.938,1056.132 940.021,1057.938C941.104,1059.743 941.465,1061.91 941.104,1064.438C938.938,1080.326 935.958,1093.417 932.167,1103.708C928.375,1114 923.951,1122.215 918.896,1128.354C913.84,1134.493 908.333,1138.736 902.375,1141.083C896.417,1143.431 890.188,1144.604 883.688,1144.604C875.743,1144.604 869.063,1142.979 863.646,1139.729C858.229,1136.479 853.806,1132.507 850.375,1127.813C846.944,1123.118 844.417,1118.063 842.792,1112.646C841.167,1107.229 840.354,1102.174 840.354,1097.479C840.354,1084.84 841.618,1072.563 844.146,1060.646C846.674,1048.729 849.472,1037.354 852.542,1026.521C855.611,1015.688 858.41,1005.306 860.938,995.375C863.465,985.444 864.729,975.965 864.729,966.938C864.729,960.076 863.104,955.201 859.854,952.313C856.604,949.424 853.535,947.979 850.646,947.979C845.229,947.979 838.91,951.681 831.688,959.083C824.465,966.486 819.229,977.771 815.979,992.938C813.451,1008.104 811.285,1022.188 809.479,1035.188C807.674,1048.188 806.771,1058.118 806.771,1064.979C806.771,1073.285 807.493,1080.417 808.938,1086.375C810.382,1092.333 813.09,1096.215 817.063,1098.021C821.035,1099.826 822.66,1101.813 821.938,1103.979ZM1088.979,984.813C1090.063,1003.229 1089.069,1021.826 1086,1040.604C1082.931,1059.382 1077.875,1076.535 1070.833,1092.063C1063.792,1107.59 1054.764,1120.229 1043.75,1129.979C1032.736,1139.729 1020.007,1144.604 1005.563,1144.604C997.979,1144.604 990.847,1142.889 984.167,1139.458C977.486,1136.028 971.618,1130.882 966.563,1124.021C961.507,1117.16 957.535,1108.493 954.646,1098.021C951.757,1087.549 950.313,1075.271 950.313,1061.188C950.313,1042.049 953.021,1024.174 958.438,1007.563C963.854,990.951 970.896,976.597 979.563,964.5C988.229,952.403 997.799,942.924 1008.271,936.063C1018.743,929.201 1029.035,925.771 1039.146,925.771C1051.063,925.771 1061.986,930.014 1071.917,938.5C1081.847,946.986 1087.535,959.354 1088.979,975.604C1089.34,977.41 1089.431,979.035 1089.25,980.479C1089.069,981.924 1088.979,983.368 1088.979,984.813ZM1065.688,1007.563C1062.799,1006.84 1060.181,1005.486 1057.833,1003.5C1055.486,1001.514 1053.951,998.535 1053.229,994.563C1052.507,991.674 1053.951,989.688 1057.563,988.604C1061.896,987.16 1064.965,984.722 1066.771,981.292C1068.576,977.861 1069.479,974.521 1069.479,971.271C1069.479,968.021 1068.215,964.681 1065.688,961.25C1063.16,957.819 1059.368,956.104 1054.313,956.104C1049.257,956.104 1043.931,958.271 1038.333,962.604C1032.736,966.938 1027.681,972.896 1023.167,980.479C1018.653,988.063 1014.951,997.181 1012.063,1007.833C1009.174,1018.486 1007.729,1030.132 1007.729,1042.771C1007.729,1053.243 1009.535,1062 1013.146,1069.042C1016.757,1076.083 1022.174,1079.604 1029.396,1079.604C1040.229,1079.604 1049.528,1073.736 1057.292,1062C1065.056,1050.264 1070.021,1034.285 1072.188,1014.063C1072.188,1010.451 1070.021,1008.285 1065.688,1007.563ZM1239.563,984.813C1240.646,1003.229 1239.653,1021.826 1236.583,1040.604C1233.514,1059.382 1228.458,1076.535 1221.417,1092.063C1214.375,1107.59 1205.347,1120.229 1194.333,1129.979C1183.319,1139.729 1170.59,1144.604 1156.146,1144.604C1148.563,1144.604 1141.431,1142.889 1134.75,1139.458C1128.069,1136.028 1122.201,1130.882 1117.146,1124.021C1112.09,1117.16 1108.118,1108.493 1105.229,1098.021C1102.34,1087.549 1100.896,1075.271 1100.896,1061.188C1100.896,1042.049 1103.604,1024.174 1109.021,1007.563C1114.438,990.951 1121.479,976.597 1130.146,964.5C1138.813,952.403 1148.382,942.924 1158.854,936.063C1169.326,929.201 1179.618,925.771 1189.729,925.771C1201.646,925.771 1212.569,930.014 1222.5,938.5C1232.431,946.986 1238.118,959.354 1239.563,975.604C1239.924,977.41 1240.014,979.035 1239.833,980.479C1239.653,981.924 1239.563,983.368 1239.563,984.813ZM1216.271,1007.563C1213.382,1006.84 1210.764,1005.486 1208.417,1003.5C1206.069,1001.514 1204.535,998.535 1203.813,994.563C1203.09,991.674 1204.535,989.688 1208.146,988.604C1212.479,987.16 1215.549,984.722 1217.354,981.292C1219.16,977.861 1220.063,974.521 1220.063,971.271C1220.063,968.021 1218.799,964.681 1216.271,961.25C1213.743,957.819 1209.951,956.104 1204.896,956.104C1199.84,956.104 1194.514,958.271 1188.917,962.604C1183.319,966.938 1178.264,972.896 1173.75,980.479C1169.236,988.063 1165.535,997.181 1162.646,1007.833C1159.757,1018.486 1158.313,1030.132 1158.313,1042.771C1158.313,1053.243 1160.118,1062 1163.729,1069.042C1167.34,1076.083 1172.757,1079.604 1179.979,1079.604C1190.813,1079.604 1200.111,1073.736 1207.875,1062C1215.639,1050.264 1220.604,1034.285 1222.771,1014.063C1222.771,1010.451 1220.604,1008.285 1216.271,1007.563ZM1288.854,844.521C1294.632,843.438 1300.229,843.438 1305.646,844.521C1311.063,845.604 1315.938,847.771 1320.271,851.021C1324.604,854.271 1328.035,858.604 1330.563,864.021C1333.09,869.438 1334.354,875.938 1334.354,883.521C1334.354,900.854 1332.819,919.361 1329.75,939.042C1326.681,958.722 1323.34,977.41 1319.729,995.104C1316.118,1012.799 1313.139,1028.597 1310.792,1042.5C1308.444,1056.403 1307.813,1066.243 1308.896,1072.021C1309.618,1073.826 1310.611,1075.542 1311.875,1077.167C1313.139,1078.792 1315.576,1079.604 1319.188,1079.604C1322.438,1079.604 1325.146,1078.701 1327.313,1076.896C1329.479,1075.09 1331.104,1072.924 1332.188,1070.396C1333.632,1067.507 1334.535,1064.257 1334.896,1060.646C1335.257,1058.118 1336.34,1056.403 1338.146,1055.5C1339.951,1054.597 1341.667,1054.326 1343.292,1054.688C1344.917,1055.049 1346.271,1056.132 1347.354,1057.938C1348.438,1059.743 1348.799,1061.91 1348.438,1064.438C1346.271,1080.326 1343.201,1093.507 1339.229,1103.979C1335.257,1114.451 1330.743,1122.667 1325.688,1128.625C1320.632,1134.583 1315.125,1138.736 1309.167,1141.083C1303.208,1143.431 1296.979,1144.604 1290.479,1144.604C1282.896,1144.604 1276.306,1142.979 1270.708,1139.729C1265.111,1136.479 1260.597,1132.236 1257.167,1127C1253.736,1121.764 1251.208,1115.715 1249.583,1108.854C1247.958,1101.993 1247.146,1094.951 1247.146,1087.729C1247.146,1075.451 1249.222,1060.104 1253.375,1041.688C1257.528,1023.271 1261.951,1003.59 1266.646,982.646C1271.34,961.701 1275.493,940.215 1279.104,918.188C1282.715,896.16 1283.979,875.215 1282.896,855.354C1282.535,852.826 1282.896,850.569 1283.979,848.583C1285.063,846.597 1286.688,845.243 1288.854,844.521ZM1378.229,881.354C1378.229,873.049 1380.847,866.368 1386.083,861.313C1391.319,856.257 1398.09,853.729 1406.396,853.729C1414.701,853.729 1421.382,856.257 1426.438,861.313C1431.493,866.368 1434.021,873.049 1434.021,881.354C1434.021,889.66 1431.493,896.34 1426.438,901.396C1421.382,906.451 1414.701,908.979 1406.396,908.979C1398.09,908.979 1391.319,906.451 1386.083,901.396C1380.847,896.34 1378.229,889.66 1378.229,881.354ZM1381.479,925.229C1387.257,924.146 1392.854,924.236 1398.271,925.5C1403.688,926.764 1408.563,929.021 1412.896,932.271C1417.229,935.521 1420.66,939.854 1423.188,945.271C1425.715,950.688 1426.979,957.007 1426.979,964.229C1426.979,973.618 1426.076,983.639 1424.271,994.292C1422.465,1004.944 1420.66,1015.236 1418.854,1025.167C1417.049,1035.097 1415.424,1044.215 1413.979,1052.521C1412.535,1060.826 1412.354,1067.326 1413.438,1072.021C1414.16,1073.826 1415.153,1075.542 1416.417,1077.167C1417.681,1078.792 1420.118,1079.604 1423.729,1079.604C1426.979,1079.604 1429.688,1078.701 1431.854,1076.896C1434.021,1075.09 1435.646,1072.924 1436.729,1070.396C1438.174,1067.507 1439.076,1064.257 1439.438,1060.646C1439.799,1058.118 1440.792,1056.403 1442.417,1055.5C1444.042,1054.597 1445.667,1054.326 1447.292,1054.688C1448.917,1055.049 1450.361,1056.132 1451.625,1057.938C1452.889,1059.743 1453.34,1061.91 1452.979,1064.438C1450.813,1080.326 1447.743,1093.507 1443.771,1103.979C1439.799,1114.451 1435.285,1122.667 1430.229,1128.625C1425.174,1134.583 1419.667,1138.736 1413.708,1141.083C1407.75,1143.431 1401.521,1144.604 1395.021,1144.604C1387.438,1144.604 1380.847,1142.979 1375.25,1139.729C1369.653,1136.479 1365.139,1132.236 1361.708,1127C1358.278,1121.764 1355.75,1115.715 1354.125,1108.854C1352.5,1101.993 1351.688,1094.951 1351.688,1087.729C1351.688,1075.451 1353.132,1062.813 1356.021,1049.813C1358.91,1036.813 1361.979,1023.813 1365.229,1010.813C1368.479,997.813 1371.278,985.083 1373.625,972.625C1375.972,960.167 1376.604,948.16 1375.521,936.604C1375.16,933.715 1375.521,931.278 1376.604,929.292C1377.688,927.306 1379.313,925.951 1381.479,925.229ZM1487.646,916.563C1489.813,905.368 1492.701,893.632 1496.313,881.354C1499.924,869.076 1504.889,857.882 1511.208,847.771C1517.528,837.66 1525.382,829.354 1534.771,822.854C1544.16,816.354 1555.715,813.104 1569.438,813.104C1579.188,813.104 1587.493,814.368 1594.354,816.896C1601.215,819.424 1606.903,822.583 1611.417,826.375C1615.931,830.167 1619.271,834.41 1621.438,839.104C1623.604,843.799 1624.688,848.493 1624.688,853.188C1624.688,859.326 1622.792,864.924 1619,869.979C1615.208,875.035 1609.701,877.924 1602.479,878.646C1599.229,878.646 1597.243,876.84 1596.521,873.229C1596.16,870.34 1595.618,867.09 1594.896,863.479C1594.174,859.868 1593.09,856.528 1591.646,853.458C1590.201,850.389 1588.306,847.861 1585.958,845.875C1583.611,843.889 1580.632,842.896 1577.021,842.896C1568.354,842.896 1561.493,850.389 1556.438,865.375C1551.382,880.361 1547.049,899.951 1543.438,924.146C1542.715,927.035 1543.167,929.382 1544.792,931.188C1546.417,932.993 1548.674,933.715 1551.563,933.354C1553.729,932.632 1555.715,932 1557.521,931.458C1559.326,930.917 1560.951,930.104 1562.396,929.021C1565.646,926.854 1567.993,926.132 1569.438,926.854C1573.049,929.743 1574.854,933.715 1574.854,938.771C1574.854,944.91 1573.319,949.875 1570.25,953.667C1567.181,957.458 1561.674,959.354 1553.729,959.354C1551.563,959.354 1549.757,959.174 1548.313,958.813C1542.174,958.09 1538.563,960.979 1537.479,967.479C1534.951,988.785 1532.243,1011.354 1529.354,1035.188C1526.465,1059.021 1523.035,1082.493 1519.063,1105.604C1515.09,1128.715 1510.215,1150.833 1504.438,1171.958C1498.66,1193.083 1491.528,1211.681 1483.042,1227.75C1474.556,1243.819 1464.444,1256.549 1452.708,1265.938C1440.972,1275.326 1427.16,1280.021 1411.271,1280.021C1397.549,1280.021 1385.813,1278.035 1376.063,1274.063C1366.313,1270.09 1358.368,1264.944 1352.229,1258.625C1346.09,1252.306 1341.667,1245.083 1338.958,1236.958C1336.25,1228.833 1334.896,1220.618 1334.896,1212.313C1334.896,1204.368 1335.979,1196.694 1338.146,1189.292C1340.313,1181.889 1343.472,1175.299 1347.625,1169.521C1351.778,1163.743 1356.653,1159.139 1362.25,1155.708C1367.847,1152.278 1374.076,1150.563 1380.938,1150.563C1384.188,1150.563 1387.618,1150.833 1391.229,1151.375C1394.84,1151.917 1398.451,1153.451 1402.063,1155.979C1404.951,1158.146 1405.854,1161.938 1404.771,1167.354C1403.688,1172.049 1404.681,1176.563 1407.75,1180.896C1410.819,1185.229 1415.604,1187.396 1422.104,1187.396C1427.882,1187.396 1433.208,1183.785 1438.083,1176.563C1442.958,1169.34 1447.292,1159.771 1451.083,1147.854C1454.875,1135.938 1458.306,1122.215 1461.375,1106.688C1464.444,1091.16 1467.243,1074.91 1469.771,1057.938C1472.299,1040.965 1474.556,1023.993 1476.542,1007.021C1478.528,990.049 1480.424,974.16 1482.229,959.354C1482.59,956.465 1481.958,954.208 1480.333,952.583C1478.708,950.958 1476.451,950.507 1473.563,951.229C1471.396,951.59 1469.41,952.493 1467.604,953.938C1465.438,956.104 1463.632,956.465 1462.188,955.021C1460.743,953.576 1459.84,951.319 1459.479,948.25C1459.118,945.181 1459.389,942.021 1460.292,938.771C1461.194,935.521 1462.91,932.632 1465.438,930.104C1467.965,927.576 1471.757,926.132 1476.813,925.771C1483.313,925.049 1486.924,921.979 1487.646,916.563ZM1647.438,1118.604C1641.299,1129.076 1634.889,1136.028 1628.208,1139.458C1621.528,1142.889 1615.66,1144.604 1610.604,1144.604C1602.299,1144.604 1595.257,1142.979 1589.479,1139.729C1583.701,1136.479 1579.007,1132.236 1575.396,1127C1571.785,1121.764 1569.167,1115.715 1567.542,1108.854C1565.917,1101.993 1565.104,1094.951 1565.104,1087.729C1565.104,1075.451 1566.549,1062.813 1569.438,1049.813C1572.326,1036.813 1575.396,1023.813 1578.646,1010.813C1581.896,997.813 1584.694,985.083 1587.042,972.625C1589.389,960.167 1590.021,948.16 1588.938,936.604C1588.576,933.715 1588.938,931.278 1590.021,929.292C1591.104,927.306 1592.729,925.951 1594.896,925.229C1600.674,924.146 1606.271,924.236 1611.688,925.5C1617.104,926.764 1621.979,929.021 1626.313,932.271C1630.646,935.521 1634.167,939.854 1636.875,945.271C1639.583,950.688 1640.938,957.007 1640.938,964.229C1640.938,972.535 1640.215,981.382 1638.771,990.771C1637.326,1000.16 1635.611,1009.368 1633.625,1018.396C1631.639,1027.424 1629.924,1035.91 1628.479,1043.854C1627.035,1051.799 1626.313,1058.479 1626.313,1063.896C1626.313,1068.229 1627.125,1071.931 1628.75,1075C1630.375,1078.069 1633.896,1079.604 1639.313,1079.604C1642.924,1079.604 1645.993,1078.882 1648.521,1077.438C1651.049,1075.993 1653.125,1074.278 1654.75,1072.292C1656.375,1070.306 1657.549,1068.319 1658.271,1066.333C1658.993,1064.347 1659.535,1062.813 1659.896,1061.729C1662.063,1049.813 1663.958,1038.076 1665.583,1026.521C1667.208,1014.965 1668.833,1004.313 1670.458,994.563C1672.083,984.813 1673.708,976.056 1675.333,968.292C1676.958,960.528 1678.493,954.479 1679.938,950.146C1683.188,941.479 1687.611,935.34 1693.208,931.729C1698.806,928.118 1704.674,926.313 1710.813,926.313C1718.035,926.313 1725.076,928.299 1731.938,932.271C1735.188,934.076 1736.903,936.153 1737.083,938.5C1737.264,940.847 1736.271,942.924 1734.104,944.729C1730.132,947.979 1727.063,955.201 1724.896,966.396C1722.729,977.59 1720.743,991.132 1718.938,1007.021C1717.132,1022.91 1715.236,1040.514 1713.25,1059.833C1711.264,1079.153 1708.646,1098.743 1705.396,1118.604C1702.146,1138.465 1697.993,1157.604 1692.938,1176.021C1687.882,1194.438 1681.292,1210.868 1673.167,1225.313C1665.042,1239.757 1655.021,1251.313 1643.104,1259.979C1631.188,1268.646 1616.924,1272.979 1600.313,1272.979C1588.396,1272.979 1578.014,1271.083 1569.167,1267.292C1560.319,1263.5 1552.917,1258.535 1546.958,1252.396C1541,1246.257 1536.396,1239.125 1533.146,1231C1529.896,1222.875 1528.271,1214.66 1528.271,1206.354C1528.271,1199.132 1529.354,1192.181 1531.521,1185.5C1533.688,1178.819 1536.757,1172.861 1540.729,1167.625C1544.701,1162.389 1549.306,1158.236 1554.542,1155.167C1559.778,1152.097 1565.285,1150.563 1571.063,1150.563C1574.313,1150.563 1577.653,1150.833 1581.083,1151.375C1584.514,1151.917 1588.215,1153.451 1592.188,1155.979C1594.715,1157.785 1595.618,1161.576 1594.896,1167.354C1593.813,1172.049 1594.806,1176.563 1597.875,1180.896C1600.944,1185.229 1605.729,1187.396 1612.229,1187.396C1615.479,1187.396 1618.91,1185.319 1622.521,1181.167C1626.132,1177.014 1629.743,1171.778 1633.354,1165.458C1636.965,1159.139 1640.306,1152.097 1643.375,1144.333C1646.444,1136.569 1649.063,1129.076 1651.229,1121.854C1652.313,1117.882 1652.403,1115.625 1651.5,1115.083C1650.597,1114.542 1649.243,1115.715 1647.438,1118.604ZM1704.786,1231.857C1703.524,1231.857 1702.436,1231.45 1701.52,1230.636C1700.605,1229.822 1700.147,1228.683 1700.147,1227.218C1700.147,1225.977 1700.584,1224.909 1701.459,1224.014C1702.334,1223.118 1703.412,1222.671 1704.694,1222.671C1705.976,1222.671 1707.069,1223.113 1707.975,1223.998C1708.88,1224.883 1709.333,1225.957 1709.333,1227.218C1709.333,1228.662 1708.88,1229.797 1707.975,1230.621C1707.069,1231.445 1706.006,1231.857 1704.786,1231.857ZM1746.534,1215.53L1746.534,1226.608C1746.534,1228.357 1746.137,1229.669 1745.344,1230.544C1744.55,1231.419 1743.502,1231.857 1742.2,1231.857C1740.939,1231.857 1739.916,1231.419 1739.133,1230.544C1738.35,1229.669 1737.958,1228.357 1737.958,1226.608L1737.958,1213.332C1737.958,1211.237 1737.887,1209.609 1737.745,1208.45C1737.602,1207.29 1737.216,1206.339 1736.585,1205.596C1735.954,1204.854 1734.957,1204.482 1733.594,1204.482C1730.868,1204.482 1729.073,1205.418 1728.208,1207.29C1727.343,1209.162 1726.911,1211.847 1726.911,1215.347L1726.911,1226.608C1726.911,1228.337 1726.519,1229.644 1725.736,1230.529C1724.953,1231.414 1723.92,1231.857 1722.638,1231.857C1721.377,1231.857 1720.345,1231.414 1719.541,1230.529C1718.737,1229.644 1718.335,1228.337 1718.335,1226.608L1718.335,1202.773C1718.335,1201.207 1718.697,1200.017 1719.419,1199.203C1720.141,1198.389 1721.092,1197.982 1722.272,1197.982C1723.412,1197.982 1724.363,1198.364 1725.126,1199.126C1725.889,1199.889 1726.27,1200.942 1726.27,1202.285L1726.27,1203.078C1727.715,1201.349 1729.261,1200.078 1730.909,1199.264C1732.557,1198.45 1734.388,1198.043 1736.402,1198.043C1738.497,1198.043 1740.298,1198.46 1741.803,1199.294C1743.309,1200.128 1744.55,1201.39 1745.527,1203.078C1746.93,1201.37 1748.436,1200.103 1750.043,1199.279C1751.651,1198.455 1753.431,1198.043 1755.384,1198.043C1757.662,1198.043 1759.626,1198.491 1761.274,1199.386C1762.922,1200.281 1764.153,1201.563 1764.966,1203.231C1765.678,1204.737 1766.034,1207.107 1766.034,1210.342L1766.034,1226.608C1766.034,1228.357 1765.638,1229.669 1764.844,1230.544C1764.051,1231.419 1763.003,1231.857 1761.701,1231.857C1760.44,1231.857 1759.407,1231.414 1758.603,1230.529C1757.8,1229.644 1757.398,1228.337 1757.398,1226.608L1757.398,1212.6C1757.398,1210.81 1757.322,1209.375 1757.169,1208.297C1757.017,1207.219 1756.605,1206.313 1755.933,1205.581C1755.262,1204.849 1754.244,1204.482 1752.881,1204.482C1751.783,1204.482 1750.74,1204.808 1749.753,1205.459C1748.767,1206.11 1747.999,1206.985 1747.449,1208.083C1746.839,1209.487 1746.534,1211.969 1746.534,1215.53ZM1792.188,1228.408L1786.146,1219.527L1779.95,1228.408C1779.055,1229.649 1778.297,1230.534 1777.677,1231.063C1777.056,1231.592 1776.268,1231.857 1775.312,1231.857C1774.254,1231.857 1773.354,1231.526 1772.611,1230.865C1771.868,1230.204 1771.497,1229.446 1771.497,1228.591C1771.497,1227.716 1772.067,1226.465 1773.206,1224.838L1780.744,1214.034L1774.061,1205.032C1772.901,1203.546 1772.321,1202.255 1772.321,1201.156C1772.321,1200.301 1772.667,1199.559 1773.359,1198.928C1774.05,1198.297 1774.956,1197.982 1776.075,1197.982C1777.051,1197.982 1777.86,1198.257 1778.501,1198.806C1779.142,1199.355 1779.889,1200.22 1780.744,1201.4L1786.146,1208.785L1791.395,1201.4C1792.269,1200.179 1793.027,1199.304 1793.668,1198.776C1794.309,1198.247 1795.108,1197.982 1796.064,1197.982C1797.162,1197.982 1798.073,1198.292 1798.795,1198.913C1799.517,1199.533 1799.878,1200.281 1799.878,1201.156C1799.878,1201.787 1799.731,1202.392 1799.436,1202.972C1799.141,1203.552 1798.688,1204.238 1798.078,1205.032L1791.395,1214.034L1798.932,1224.838C1800.112,1226.526 1800.702,1227.798 1800.702,1228.652C1800.702,1229.527 1800.336,1230.28 1799.604,1230.911C1798.871,1231.541 1797.966,1231.857 1796.888,1231.857C1795.932,1231.857 1795.123,1231.582 1794.462,1231.033C1793.8,1230.483 1793.043,1229.608 1792.188,1228.408Z" style="fill:rgb(37,46,107);"/>
        <g transform="matrix(1,0,0,1,511,-135)">
            <clipPath id="_clip1">
                <path d="M1193.98,1368.363C1192.205,1368.363 1190.675,1367.782 1189.386,1366.637C1188.064,1365.461 1187.342,1363.84 1187.342,1361.724C1187.342,1359.942 1187.967,1358.407 1189.224,1357.122C1190.486,1355.83 1192.039,1355.177 1193.889,1355.177C1195.717,1355.177 1197.276,1355.812 1198.568,1357.074C1199.875,1358.352 1200.528,1359.902 1200.528,1361.724C1200.528,1363.806 1199.821,1365.418 1198.516,1366.606C1197.228,1367.777 1195.716,1368.363 1193.98,1368.363ZM1216.728,1333.556C1217.535,1332.923 1218.366,1332.397 1219.218,1331.977C1221.132,1331.031 1223.257,1330.549 1225.597,1330.549C1228.07,1330.549 1230.19,1331.066 1231.968,1332.051C1233.067,1332.66 1234.054,1333.454 1234.923,1334.439C1236.01,1333.419 1237.146,1332.61 1238.326,1332.005C1240.208,1331.04 1242.291,1330.549 1244.579,1330.549C1247.229,1330.549 1249.507,1331.093 1251.423,1332.134C1253.448,1333.234 1254.959,1334.81 1255.959,1336.86L1255.969,1336.882C1256.768,1338.571 1257.229,1341.219 1257.229,1344.848L1257.229,1361.114C1257.229,1363.475 1256.591,1365.213 1255.521,1366.394C1254.35,1367.685 1252.817,1368.363 1250.896,1368.363C1249.028,1368.363 1247.507,1367.69 1246.318,1366.38C1245.232,1365.184 1244.593,1363.449 1244.593,1361.114L1244.593,1347.106C1244.593,1345.432 1244.526,1344.091 1244.384,1343.083C1244.292,1342.433 1244.059,1341.88 1243.654,1341.438C1243.314,1341.068 1242.766,1340.988 1242.076,1340.988C1241.363,1340.988 1240.69,1341.212 1240.05,1341.634C1239.371,1342.082 1238.843,1342.684 1238.454,1343.444C1237.928,1344.706 1237.729,1346.908 1237.729,1350.036L1237.729,1361.114C1237.729,1363.475 1237.091,1365.213 1236.02,1366.394C1234.849,1367.685 1233.316,1368.363 1231.395,1368.363C1229.517,1368.363 1228.004,1367.687 1226.838,1366.384C1225.783,1365.206 1225.153,1363.47 1225.153,1361.114L1225.153,1347.838C1225.153,1345.848 1225.09,1344.301 1224.954,1343.199C1224.865,1342.471 1224.651,1341.863 1224.255,1341.397C1223.955,1341.043 1223.439,1340.988 1222.789,1340.988C1221.024,1340.988 1219.778,1341.423 1219.218,1342.635C1218.445,1344.31 1218.106,1346.721 1218.106,1349.853L1218.106,1361.114C1218.106,1363.441 1217.482,1365.17 1216.428,1366.361C1215.263,1367.677 1213.74,1368.363 1211.833,1368.363C1209.966,1368.363 1208.445,1367.69 1207.255,1366.38C1206.17,1365.184 1205.53,1363.449 1205.53,1361.114L1205.53,1337.279C1205.53,1335.118 1206.121,1333.504 1207.118,1332.381C1208.222,1331.137 1209.664,1330.488 1211.467,1330.488C1213.174,1330.488 1214.592,1331.075 1215.735,1332.218C1216.13,1332.613 1216.463,1333.059 1216.728,1333.556ZM1279.729,1364.039L1275.32,1357.559L1270.786,1364.058L1270.767,1364.084C1269.75,1365.495 1268.875,1366.49 1268.169,1367.091C1267.205,1367.913 1265.993,1368.363 1264.507,1368.363C1262.925,1368.363 1261.586,1367.853 1260.476,1366.864C1259.253,1365.776 1258.692,1364.504 1258.692,1363.097C1258.692,1361.969 1259.293,1360.296 1260.761,1358.199L1267.475,1348.577L1261.666,1340.752C1260.162,1338.82 1259.516,1337.092 1259.516,1335.662C1259.516,1334.246 1260.06,1333.001 1261.206,1331.956C1262.245,1331.009 1263.589,1330.488 1265.27,1330.488C1266.775,1330.488 1268.009,1330.947 1268.997,1331.794C1269.725,1332.417 1270.585,1333.389 1271.555,1334.728L1275.317,1339.872L1278.959,1334.747L1278.964,1334.741C1279.969,1333.339 1280.854,1332.347 1281.59,1331.739C1282.574,1330.927 1283.79,1330.488 1285.259,1330.488C1286.886,1330.488 1288.223,1330.982 1289.293,1331.902C1290.499,1332.938 1291.073,1334.201 1291.073,1335.662C1291.073,1336.607 1290.856,1337.515 1290.413,1338.385C1290.076,1339.048 1289.566,1339.836 1288.87,1340.742L1283.053,1348.577L1289.767,1358.198C1291.281,1360.366 1291.897,1362.061 1291.897,1363.158C1291.897,1364.614 1291.322,1365.883 1290.104,1366.932C1289.017,1367.868 1287.683,1368.363 1286.083,1368.363C1284.619,1368.363 1283.39,1367.918 1282.378,1367.077C1281.619,1366.446 1280.735,1365.453 1279.753,1364.074L1279.729,1364.039Z" clip-rule="nonzero"/>
            </clipPath>
            <g clip-path="url(#_clip1)">
                <g transform="matrix(1,-0,-0,1,-511,135)">
                    <path d="M1704.98,1233.363C1703.205,1233.363 1701.675,1232.782 1700.386,1231.637C1699.064,1230.461 1698.342,1228.84 1698.342,1226.724C1698.342,1224.942 1698.967,1223.407 1700.224,1222.122C1701.486,1220.83 1703.039,1220.177 1704.889,1220.177C1706.717,1220.177 1708.276,1220.812 1709.568,1222.074C1710.875,1223.352 1711.528,1224.902 1711.528,1226.724C1711.528,1228.806 1710.821,1230.418 1709.516,1231.606C1708.228,1232.777 1706.716,1233.363 1704.98,1233.363Z" style="fill:rgb(37,46,107);"/>
                </g>
                <g transform="matrix(1,-0,-0,1,-511,135)">
                    <path d="M1727.728,1198.556C1728.535,1197.923 1729.366,1197.397 1730.218,1196.977C1732.132,1196.031 1734.257,1195.549 1736.597,1195.549C1739.07,1195.549 1741.19,1196.066 1742.968,1197.051C1744.067,1197.66 1745.054,1198.454 1745.923,1199.439C1747.01,1198.419 1748.146,1197.61 1749.326,1197.005C1751.208,1196.04 1753.291,1195.549 1755.579,1195.549C1758.229,1195.549 1760.507,1196.093 1762.423,1197.134C1764.448,1198.234 1765.959,1199.81 1766.959,1201.86L1766.969,1201.882C1767.768,1203.571 1768.229,1206.219 1768.229,1209.848L1768.229,1226.114C1768.229,1228.475 1767.591,1230.213 1766.521,1231.394C1765.35,1232.685 1763.817,1233.363 1761.896,1233.363C1760.028,1233.363 1758.507,1232.69 1757.318,1231.38C1756.232,1230.184 1755.593,1228.449 1755.593,1226.114L1755.593,1212.106C1755.593,1210.432 1755.526,1209.091 1755.384,1208.083C1755.292,1207.433 1755.059,1206.88 1754.654,1206.438C1754.314,1206.068 1753.766,1205.988 1753.076,1205.988C1752.363,1205.988 1751.69,1206.212 1751.05,1206.634C1750.371,1207.082 1749.843,1207.684 1749.454,1208.444C1748.928,1209.706 1748.729,1211.908 1748.729,1215.036L1748.729,1226.114C1748.729,1228.475 1748.091,1230.213 1747.02,1231.394C1745.849,1232.685 1744.316,1233.363 1742.395,1233.363C1740.517,1233.363 1739.004,1232.687 1737.838,1231.384C1736.783,1230.206 1736.153,1228.47 1736.153,1226.114L1736.153,1212.838C1736.153,1210.848 1736.09,1209.301 1735.954,1208.199C1735.865,1207.471 1735.651,1206.863 1735.255,1206.397C1734.955,1206.043 1734.439,1205.988 1733.789,1205.988C1732.024,1205.988 1730.778,1206.423 1730.218,1207.635C1729.445,1209.31 1729.106,1211.721 1729.106,1214.853L1729.106,1226.114C1729.106,1228.441 1728.482,1230.17 1727.428,1231.361C1726.263,1232.677 1724.74,1233.363 1722.833,1233.363C1720.966,1233.363 1719.445,1232.69 1718.255,1231.38C1717.17,1230.184 1716.53,1228.449 1716.53,1226.114L1716.53,1202.279C1716.53,1200.118 1717.121,1198.504 1718.118,1197.381C1719.222,1196.137 1720.664,1195.488 1722.467,1195.488C1724.174,1195.488 1725.592,1196.075 1726.735,1197.218C1727.13,1197.613 1727.463,1198.059 1727.728,1198.556Z" style="fill:rgb(37,46,107);"/>
                </g>
                <g transform="matrix(1,-0,-0,1,-511,135)">
                    <path d="M1790.729,1229.039L1786.32,1222.559L1781.786,1229.058L1781.767,1229.084C1780.75,1230.495 1779.875,1231.49 1779.169,1232.091C1778.205,1232.913 1776.993,1233.363 1775.507,1233.363C1773.925,1233.363 1772.586,1232.853 1771.476,1231.864C1770.253,1230.776 1769.692,1229.504 1769.692,1228.097C1769.692,1226.969 1770.293,1225.296 1771.761,1223.199L1778.475,1213.577L1772.666,1205.752C1771.162,1203.82 1770.516,1202.092 1770.516,1200.662C1770.516,1199.246 1771.06,1198.001 1772.206,1196.956C1773.245,1196.009 1774.589,1195.488 1776.27,1195.488C1777.775,1195.488 1779.009,1195.947 1779.997,1196.794C1780.725,1197.417 1781.585,1198.389 1782.555,1199.728L1786.317,1204.872L1789.959,1199.747L1789.964,1199.741C1790.969,1198.339 1791.854,1197.347 1792.59,1196.739C1793.574,1195.927 1794.79,1195.488 1796.259,1195.488C1797.886,1195.488 1799.223,1195.982 1800.293,1196.902C1801.499,1197.938 1802.073,1199.201 1802.073,1200.662C1802.073,1201.607 1801.856,1202.515 1801.413,1203.385C1801.076,1204.048 1800.566,1204.836 1799.87,1205.742L1794.053,1213.577L1800.767,1223.198C1802.281,1225.366 1802.897,1227.061 1802.897,1228.158C1802.897,1229.614 1802.322,1230.883 1801.104,1231.932C1800.017,1232.868 1798.683,1233.363 1797.083,1233.363C1795.619,1233.363 1794.39,1232.918 1793.378,1232.077C1792.619,1231.446 1791.735,1230.453 1790.753,1229.074L1790.729,1229.039Z" style="fill:rgb(37,46,107);"/>
                </g>
            </g>
        </g>
        <g transform="matrix(0.97622,0,0,0.807175,8.517073,205.941704)">
            <rect x="232" y="705" width="1640" height="669" style="fill:rgb(255,230,0);fill-opacity:0;"/>
        </g>
    </g>
</svg>
