<?xml version="1.0" encoding="UTF-8" standalone="no"?>
<!DOCTYPE svg PUBLIC "-//W3C//DTD SVG 1.1//EN" "http://www.w3.org/Graphics/SVG/1.1/DTD/svg11.dtd">
<svg width="100%" height="100%" viewBox="0 0 2280 542" version="1.1" xmlns="http://www.w3.org/2000/svg" xmlns:xlink="http://www.w3.org/1999/xlink" xml:space="preserve" xmlns:serif="http://www.serif.com/" style="fill-rule:evenodd;clip-rule:evenodd;stroke-linejoin:round;stroke-miterlimit:2;">
    <g transform="matrix(1,0,0,1,-110.294881,-979.009306)">
        <g transform="matrix(12.969765,0,0,12.969765,0,0)">
            <path d="M59.898,76.969C59.151,76.782 58.358,76.642 57.564,76.456C53.176,75.616 44.587,74.449 35.438,77.249C35.438,77.249 28.903,79.209 28.063,82.431C27.269,85.699 27.876,87.239 29.043,88.639C30.21,90.039 38.099,97.788 40.479,101.756C42.86,105.724 43.28,107.403 41.086,109.737C38.845,112.072 33.104,115.759 22.881,112.912C22.881,112.912 14.665,110.438 8.504,105.116C8.504,105.116 10.745,110.391 11.258,112.959C11.258,112.959 24.328,117.02 30.443,117.253C36.605,117.486 45.38,115.666 49.535,109.551C53.689,103.437 49.581,98.395 46.78,95.174C43.98,91.906 40.292,88.639 38.798,86.165C37.304,83.737 36.604,81.264 40.152,80.144C43.7,78.977 51.355,78.65 54.296,79.677C57.191,80.751 56.957,82.711 55.136,85.699L61.204,85.699C62.651,85.699 63.584,85.745 63.584,85.745C63.584,85.745 66.665,83.224 66.245,80.75C65.919,78.743 63.259,77.716 59.898,76.969ZM157.271,108.851C158.998,108.198 160.959,107.451 163.152,106.75C171.181,104.09 178.603,102.082 178.603,102.082C179.07,102.036 180.749,102.923 181.544,103.483C182.337,104.043 184.251,105.163 184.251,105.163C176.456,105.49 165.159,109.131 157.271,112.025C152.744,113.659 149.289,115.059 148.308,115.526C145.507,116.692 144.107,116.366 143.828,116.319C143.64,116.272 142.754,115.852 141.726,115.293C140.607,114.686 139.298,113.939 138.552,113.332C137.105,112.212 138.038,109.411 138.038,109.411C138.505,107.683 139.952,105.304 141.726,102.829C145.554,97.508 150.783,91.766 150.783,91.766C153.211,90.459 155.592,89.619 157.271,89.105C158.671,88.732 159.558,88.545 159.558,88.545C168.148,86.678 170.435,88.545 170.714,88.919C171.04,89.246 171.927,90.46 165.347,96.388C162.826,98.581 159.931,100.356 157.271,101.756C152.835,104.043 149.101,105.257 149.101,105.257C148.355,106.191 147.234,108.571 146.394,110.439C145.507,112.306 146.675,112.773 148.355,112.446C149.568,112.165 152.604,110.672 157.271,108.851ZM157.271,98.255C158.105,97.72 158.901,97.127 159.652,96.481C161.892,94.381 163.293,92.514 161.752,91.72C161.752,91.72 160.072,91.066 157.272,93.821L157.084,94.008C154.191,96.903 151.857,100.496 152.184,100.823C152.416,101.056 155.031,99.795 157.271,98.255ZM141.727,79.116C141.915,79.116 143.034,79.022 141.961,80.236C141.867,80.33 141.82,80.423 141.727,80.516C139.954,82.476 131.692,90.972 130.104,94.24C130.104,94.24 129.499,95.64 130.618,94.847C131.739,94.099 137.059,90.972 137.059,90.972C137.059,90.972 139.766,90.599 141.727,90.505C142.334,90.505 142.848,90.505 143.221,90.552C144.342,90.739 146.069,91.486 145.696,92.419C145.415,92.979 144.155,95.546 141.727,98.768C139.813,101.335 137.2,104.37 133.885,107.217C130.057,110.391 127.584,112.584 125.623,113.845C123.615,115.106 122.121,115.385 120.348,114.732C119.454,114.415 118.581,114.041 117.735,113.612C115.26,112.445 113.067,111.137 111.852,110.578C111.852,110.578 110.918,110.017 111.385,109.178C111.852,108.291 113.487,105.536 113.719,104.79C113.719,104.79 109.846,104.416 100.742,111.978C100.742,111.978 99.67,113.378 98.267,112.958C96.867,112.537 94.253,110.671 94.253,110.671C94.253,110.671 93.926,110.391 94.253,109.736C94.627,109.084 96.074,107.17 96.074,107.17C96.074,107.17 96.774,106.282 95.42,106.89C94.02,107.45 90.472,109.504 87.858,111.884C87.858,111.884 86.504,113.284 84.684,112.819C82.91,112.351 80.436,111.045 80.436,111.045C80.436,111.045 79.922,110.812 80.482,109.691C81.089,108.571 86.457,99.841 90.145,95.967C90.145,95.967 90.705,95.314 89.912,94.94C89.072,94.52 88.511,94.1 88.511,94.1C88.511,94.1 77.822,104.416 71.006,109.037C66.292,112.259 63.071,114.499 59.897,114.452C58.497,114.452 57.096,113.985 55.556,113.052C55.556,113.052 53.269,111.885 53.456,109.692C53.596,107.731 54.996,102.316 59.897,96.714C60.69,95.828 61.625,94.894 62.651,93.914C69.839,87.426 78.149,88.219 80.809,89.293C83.423,90.32 84.123,93.447 78.569,95.921C78.569,95.921 77.355,96.855 72.594,97.088C72.594,97.088 75.815,93.82 76.002,92.28C76.189,90.786 74.415,90.739 72.034,92.607C69.653,94.475 62.465,102.223 61.671,107.871C60.831,113.519 67.506,108.618 67.506,108.618C67.506,108.618 75.255,103.11 80.203,98.535C85.151,94.055 86.318,92.841 86.318,92.701C86.364,92.56 86.505,92.607 86.318,92.421C86.318,92.421 84.544,91.441 85.757,90.274C86.97,89.107 90.752,86.54 93.039,85.98C93.039,85.98 94.066,85.466 94.673,86.167C95.279,86.82 94.766,87.193 94.44,87.427C94.113,87.614 93.366,88.5 94.907,89.434C96.354,90.414 100.788,92.608 100.134,93.588C99.529,94.568 92.433,102.224 91.592,104.417C91.592,104.417 91.592,104.978 92.199,104.605C92.806,104.278 99.901,100.17 102.282,99.237C102.282,99.237 108.303,91.675 110.311,89.854C110.311,89.854 114.932,90.181 116.846,91.114C116.846,91.114 117.639,91.674 116.752,92.561C115.818,93.401 110.449,98.816 108.068,102.644C108.068,102.644 107.089,104.091 108.209,103.764C109.33,103.391 114.744,100.777 117.451,100.216C117.451,100.216 117.545,100.029 117.732,99.749C118.712,98.35 121.933,93.774 125.621,89.106C128.281,85.699 131.223,82.244 133.695,79.957C133.697,79.957 138.459,79.209 141.727,79.116ZM125.623,107.218C126.369,106.471 127.164,105.583 128.004,104.65C131.598,100.262 132.719,98.722 132.158,97.601C132.158,97.601 129.871,97.369 125.623,100.962C125.25,101.242 124.875,101.569 124.549,101.942C119.602,106.47 118.154,110.952 119.367,111.137C120.301,111.278 122.822,109.925 125.623,107.218ZM117.734,81.077C118.947,80.937 119.88,81.124 119.88,81.124C122.448,81.684 123.521,84.158 121.747,86.585C120.673,88.032 119.134,88.452 117.733,88.545C116.753,88.592 115.866,88.498 115.399,88.358C114.184,88.078 111.477,85.604 113.811,82.943C114.934,81.637 116.473,81.17 117.734,81.077ZM172.209,109.411L172.021,109.411C171.648,109.411 171.275,109.458 170.949,109.598C170.621,109.738 170.342,109.925 170.06,110.205C169.8,110.474 169.594,110.791 169.455,111.138C169.314,111.465 169.221,111.838 169.221,112.212C169.221,112.585 169.268,112.912 169.455,113.285C169.594,113.612 169.781,113.892 170.06,114.173C170.294,114.452 170.621,114.64 170.949,114.779C171.322,114.919 171.648,115.012 172.021,115.012L172.209,115.012C172.488,114.965 172.814,114.918 173.096,114.779C173.422,114.639 173.75,114.452 174.03,114.173C174.309,113.94 174.497,113.612 174.637,113.285C174.776,112.959 174.823,112.585 174.823,112.212C174.823,111.838 174.776,111.465 174.637,111.138C174.507,110.786 174.3,110.467 174.03,110.205C173.751,109.971 173.469,109.737 173.096,109.598C172.814,109.505 172.535,109.411 172.209,109.411ZM172.209,112.025C172.488,111.978 172.676,111.931 172.814,111.884C172.955,111.791 173.048,111.604 173.048,111.371C173.048,111.137 172.954,110.997 172.814,110.857C172.675,110.763 172.488,110.716 172.209,110.716L171.322,110.716L171.322,112.024L172.021,112.024L172.209,112.025ZM172.209,110.345C172.676,110.345 173.002,110.439 173.236,110.578C173.515,110.765 173.609,110.998 173.609,111.325C173.609,111.604 173.562,111.792 173.375,111.978C173.236,112.165 173.002,112.258 172.77,112.305L173.563,113.985L172.956,113.985L172.21,112.398L172.163,112.351L171.323,112.351L171.323,113.985L170.809,113.985L170.809,110.344L172.116,110.344L172.209,110.345ZM172.209,115.339L172.021,115.339C171.601,115.339 171.181,115.293 170.808,115.107C170.435,114.966 170.107,114.733 169.781,114.406C169.496,114.13 169.273,113.796 169.127,113.427C168.941,113.006 168.895,112.633 168.895,112.213C168.895,111.793 168.942,111.373 169.127,110.999C169.268,110.626 169.502,110.252 169.828,109.972C170.107,109.646 170.435,109.459 170.808,109.272C171.181,109.132 171.601,109.039 172.021,109.039L172.209,109.039C172.582,109.087 172.908,109.18 173.236,109.272C173.609,109.46 173.982,109.693 174.263,109.972C174.542,110.252 174.775,110.626 174.962,110.999C175.103,111.373 175.194,111.793 175.194,112.213C175.194,112.633 175.102,113.053 174.962,113.427C174.774,113.8 174.542,114.127 174.263,114.406C173.935,114.733 173.609,114.967 173.236,115.107C172.912,115.25 172.563,115.328 172.209,115.339Z" style="fill:rgb(30,68,127);"/>
        </g>
    </g>
</svg>
